<svg width="356.31446533203126px" height="57.661540222167964px" xmlns="http://www.w3.org/2000/svg" viewBox="71.84276733398437 46.16922988891602 356.31446533203126 57.661540222167964" style="background: rgba(0, 0, 0, 0);" preserveAspectRatio="xMidYMid"><defs><linearGradient id="editing-shiny-gradient" x1="0.04322727117869957" x2="0.9567727288213004" y1="0.2966316784620999" y2="0.7033683215379001" gradientUnits="objectBoundingBox"><stop offset="0.0" stop-color="#ffb200"></stop><stop offset="0.5" stop-color="#e10057"></stop><stop offset="1.0" stop-color="#5A1A80"></stop></linearGradient><linearGradient id="editing-shiny-gradient2" x1="0" x2="0" y1="0" y2="1"><stop offset="0.2" stop-color="#fff" stop-opacity="0.8"></stop><stop offset="0.8" stop-color="#fff" stop-opacity="0"></stop></linearGradient><filter id="editing-shiny2" x="-100%" y="-100%" width="300%" height="300%"><feMorphology operator="erode" radius="2"></feMorphology></filter><filter id="editing-shiny" x="-100%" y="-100%" width="300%" height="300%"><feFlood flood-color="#fff" result="flood"></feFlood><feConvolveMatrix in="SourceGraphic" result="conv" order="8,8" divisor="1" kernelMatrix="0 0 0 0 0 0 0 0 0 0 0 1 1 0 0 0 0 0 0 1 1 0 0 0 0 0 1 0 0 1 0 0 0 0 1 0 0 1 0 0 0 1 0 0 0 0 1 0 0 1 1 0 0 1 1 0 0 0 0 1 1 0 0 0 "></feConvolveMatrix><feOffset dx="0" dy="4" in="conv" result="offset"></feOffset><feComposite operator="in" in="flood" in2="offset" result="comp"></feComposite><feGaussianBlur in="offset" stdDeviation="3" result="shadow"></feGaussianBlur><feColorMatrix in="shadow" type="matrix" values="0.7 0 0 0 0  0 0.7 0 0 0  0 0 0.7 0 0  0 0 0 0.3 0" result="dark-shadow"></feColorMatrix><feOffset dx="0" dy="4" in="dark-shadow" result="offset-shadow"></feOffset><feOffset dx="0" dy="2" in="conv" result="offset-2"></feOffset><feComposite operator="out" in="offset" in2="offset-2" result="edge-diff"></feComposite><feGaussianBlur in="edge-diff" stdDeviation="1" result="edge-blur"></feGaussianBlur><feColorMatrix in="edge-blur" result="edge-shadow" type="matrix" values="0 0 0 0 0  0 0 0 0 0  0 0 0 0 0  0 0 0 0.5 0"></feColorMatrix><feComposite operator="in" in="edge-shadow" in2="offset" result="edge-shadow-in"></feComposite><feOffset dx="0" dy="1" in="edge-shadow-in" result="edge-shadow-final"></feOffset><feMerge result="out"><feMergeNode in="offset-shadow"></feMergeNode><feMergeNode in="comp"></feMergeNode><feMergeNode in="edge-shadow-final"></feMergeNode><feMergeNode in="SourceGraphic"></feMergeNode></feMerge></filter></defs><g filter="url(#editing-shiny)"><g transform="translate(65.28201079368591, 92.64999580383301)"><path d="M-0.92 1.43L-0.92 1.43L-0.92 1.43Q-1.29 2.14-2.28 2.14L-2.28 2.14L-2.28 2.14Q-3.26 2.14-3.26 1.73L-3.26 1.73L-3.26 1.73Q-3.26 1.56-3.16 1.43L-3.16 1.43L13.06-24.96L13.06-24.96Q13.33-25.47 14.38-25.47L14.38-25.47L14.38-25.47Q15.44-25.47 15.44-25.19L15.44-25.19L15.44-25.19Q15.44-25.16-0.92 1.43ZM24.89-18.84L24.89-18.84L25.02-19.89L25.02-19.89Q25.02-21.45 23.80-21.90L23.80-21.90L23.80-21.90Q22.85-22.20 22.34-22.20L22.34-22.20L22.30-22.20L22.30-22.20Q21.28-22.20 20.54-21.88L20.54-21.88L20.54-21.88Q19.79-21.56 19.45-21.08L19.45-21.08L19.45-21.08Q18.73-20.09 18.63-19.01L18.63-19.01L18.63-19.01Q18.63-17.71 19.79-16.78L19.79-16.78L19.79-16.78Q20.94-15.84 22.59-15.15L22.59-15.15L22.59-15.15Q24.24-14.45 25.89-13.63L25.89-13.63L25.89-13.63Q27.54-12.82 28.70-11.29L28.70-11.29L28.70-11.29Q29.85-9.76 29.85-7.62L29.85-7.62L29.85-7.62Q29.85-3.43 27.22-1.36L27.22-1.36L27.22-1.36Q24.58 0.71 21.23 0.71L21.23 0.71L21.23 0.71Q17.88 0.71 15.69-0.80L15.69-0.80L15.69-0.80Q13.50-2.31 13.50-4.86L13.50-4.86L13.50-4.90L13.50-4.90Q13.50-6.15 13.89-7.09L13.89-7.09L13.89-7.09Q14.28-8.02 14.82-8.47L14.82-8.47L14.82-8.47Q15.95-9.38 16.86-9.45L16.86-9.45L17.27-9.49L17.27-9.49Q18.22-9.49 19.01-9.03L19.01-9.03L19.01-9.03Q19.79-8.57 19.79-7.75L19.79-7.75L19.79-7.75Q19.79-7.34 19.35-7.07L19.35-7.07L19.35-7.07Q18.90-6.80 18.58-6.26L18.58-6.26L18.58-6.26Q18.26-5.71 18.22-5.34L18.22-5.34L18.16-4.96L18.16-4.96Q18.16-2.89 20.06-2.21L20.06-2.21L20.06-2.21Q20.74-1.97 21.15-1.97L21.15-1.97L21.15-1.97Q23.02-1.97 24.16-3.09L24.16-3.09L24.16-3.09Q25.30-4.22 25.30-5.95L25.30-5.95L25.30-5.95Q25.30-8.02 23.53-9.32L23.53-9.32L23.53-9.32Q22.20-10.27 20.66-10.91L20.66-10.91L20.66-10.91Q19.11-11.56 18.56-11.83L18.56-11.83L18.56-11.83Q18.02-12.10 17.41-12.48L17.41-12.48L17.41-12.48Q16.80-12.85 16.05-13.53L16.05-13.53L16.05-13.53Q14.42-14.96 14.42-17.39L14.42-17.39L14.42-17.39Q14.42-19.82 15.74-21.49L15.74-21.49L15.74-21.49Q18.12-24.51 22.88-24.51L22.88-24.51L22.88-24.51Q25.40-24.51 27.13-23.55L27.13-23.55L27.13-23.55Q28.87-22.58 28.87-20.88L28.87-20.88L28.87-20.88Q28.87-19.65 28.17-18.84L28.17-18.84L28.17-18.84Q27.47-18.02 26.38-18.02L26.38-18.02L26.38-18.02Q25.87-18.02 25.38-18.22L25.38-18.22L25.38-18.22Q24.89-18.43 24.89-18.84ZM39.34-9.52L39.34-9.52L39.34-9.52Q39.34-9.52 50.97-9.62L50.97-9.62L50.97-9.62Q51.41-9.62 51.41-9.25L51.41-9.25L51.41-9.25Q51.41-7.55 50.18-7.55L50.18-7.55L38.45-7.55L38.45-7.55Q38.01-7.55 38.01-8.23L38.01-8.23L38.01-8.23Q38.01-9.52 39.34-9.52ZM65.93 9.42L65.93 9.42L65.93 9.42Q65.93 9.83 65.52 9.83L65.52 9.83L65.48 9.83L65.48 9.83Q64.36 9.83 62.95 9.04L62.95 9.04L62.95 9.04Q61.54 8.26 61.54 7.24L61.54 7.24L61.54 7.24Q61.54 6.22 62.83 3.69L62.83 3.69L62.83 3.69Q64.12 1.16 64.12 0.31L64.12 0.31L64.12 0.31Q64.12-0.61 63.24-2.99L63.24-2.99L63.24-2.99Q62.12-6.09 61.45-8.02L61.45-8.02L61.45-8.02Q60.79-9.96 60.03-11.44L60.03-11.44L60.03-11.44Q59.26-12.92 58.92-13.19L58.92-13.19L58.58-13.43L58.58-13.43Q58.21-13.63 58.21-13.87L58.21-13.87L58.21-13.87Q58.21-14.35 59.69-14.84L59.69-14.84L59.69-14.84Q61.17-15.33 62.29-15.33L62.29-15.33L62.29-15.33Q62.80-15.33 63.14-14.52L63.14-14.52L63.14-14.52Q63.75-12.92 64.46-10.10L64.46-10.10L64.46-10.10Q66.20-4.32 66.64-4.32L66.64-4.32L66.64-4.32Q66.95-4.32 67.88-6.70L67.88-6.70L67.88-6.70Q68.82-9.08 68.82-10.54L68.82-10.54L68.82-10.54Q68.82-13.09 67.32-13.53L67.32-13.53L67.32-13.53Q66.98-13.60 66.98-13.87L66.98-13.87L66.98-13.87Q66.98-14.48 68.58-15.05L68.58-15.05L68.58-15.05Q70.18-15.61 71.47-15.61L71.47-15.61L71.47-15.61Q72.59-15.61 72.59-14.14L72.59-14.14L72.59-14.14Q72.59-13.02 72.11-11.53L72.11-11.53L72.11-11.53Q71.64-10.03 71.23-9.16L71.23-9.16L71.23-9.16Q70.82-8.30 69.21-5.15L69.21-5.15L69.21-5.15Q67.59-2.01 66.54 0.37L66.54 0.37L66.54 0.37Q65.38 3.23 65.38 6.19L65.38 6.19L65.38 6.19Q65.38 7.75 65.65 8.53L65.65 8.53L65.65 8.53Q65.93 9.32 65.93 9.42ZM76.36-8.64L76.36-8.64L76.40-7.79L76.40-7.79Q76.40-7.58 76.67-7.58L76.67-7.58L76.67-7.58Q77.76-7.68 78.57-8.14L78.57-8.14L78.57-8.14Q79.39-8.60 79.80-9.18L79.80-9.18L79.80-9.18Q80.61-10.44 80.68-11.36L80.68-11.36L80.72-11.76L80.72-11.76Q80.72-13.60 79.25-13.60L79.25-13.60L79.25-13.60Q78.17-13.60 77.49-12.65L77.49-12.65L77.49-12.65Q76.36-11.15 76.36-8.64ZM83.78-4.11L83.78-4.11L83.78-4.11Q83.78-2.82 83.25-1.85L83.25-1.85L83.25-1.85Q82.72-0.88 82.06-0.43L82.06-0.43L82.06-0.43Q81.40 0.03 80.51 0.31L80.51 0.31L80.51 0.31Q79.39 0.65 78.37 0.65L78.37 0.65L78.37 0.65Q75.51 0.65 74.15-1.50L74.15-1.50L74.15-1.50Q72.79-3.64 72.79-6.95L72.79-6.95L72.79-6.95Q72.79-10.27 74.48-12.85L74.48-12.85L74.48-12.85Q76.16-15.44 79.53-15.44L79.53-15.44L79.53-15.44Q82.59-15.44 83.67-13.29L83.67-13.29L83.67-13.29Q84.12-12.48 84.12-11.75L84.12-11.75L84.12-11.75Q84.12-11.02 84.05-10.59L84.05-10.59L84.05-10.59Q83.98-10.17 83.57-9.32L83.57-9.32L83.57-9.32Q83.16-8.47 82.48-7.79L82.48-7.79L82.48-7.79Q81.80-7.11 80.34-6.49L80.34-6.49L80.34-6.49Q78.88-5.88 76.91-5.68L76.91-5.68L76.91-5.68Q76.64-5.68 76.64-5.44L76.64-5.44L76.64-5.44Q76.64-5.13 76.86-4.54L76.86-4.54L76.86-4.54Q77.08-3.94 77.35-3.54L77.35-3.54L77.35-3.54Q78.10-2.58 79.56-2.58L79.56-2.58L79.56-2.58Q81.02-2.58 82.04-3.54L82.04-3.54L82.04-3.54Q82.59-4.05 82.93-4.79L82.93-4.79L82.93-4.79Q83.06-5.07 83.28-5.07L83.28-5.07L83.28-5.07Q83.50-5.07 83.64-4.69L83.64-4.69L83.64-4.69Q83.78-4.32 83.78-4.11ZM95.98-4.66L95.98-4.66L95.98-4.66Q95.98-3.20 95.42-2.11L95.42-2.11L95.42-2.11Q94.86-1.02 94.15-0.51L94.15-0.51L94.15-0.51Q93.43 0 92.45 0.31L92.45 0.31L92.45 0.31Q91.15 0.71 90.10 0.71L90.10 0.71L90.10 0.71Q87.89 0.71 86.43-0.15L86.43-0.15L86.43-0.15Q84.97-1.02 84.97-2.92L84.97-2.92L84.97-2.92Q84.97-4.05 85.58-4.76L85.58-4.76L85.58-4.76Q86.53-5.81 87.86-5.81L87.86-5.81L87.86-5.81Q88.26-5.81 88.26-5.44L88.26-5.44L88.26-5.44Q88.26-5.41 88.11-4.91L88.11-4.91L88.11-4.91Q87.96-4.42 87.96-3.67L87.96-3.67L87.96-3.67Q87.96-2.92 88.55-2.35L88.55-2.35L88.55-2.35Q89.15-1.77 90.00-1.77L90.00-1.77L90.00-1.77Q90.85-1.77 91.36-2.06L91.36-2.06L91.36-2.06Q91.87-2.35 92.07-2.79L92.07-2.79L92.07-2.79Q92.38-3.40 92.38-3.94L92.38-3.94L92.38-3.94Q92.38-4.93 91.39-5.64L91.39-5.64L91.39-5.64Q90.41-6.36 89.22-6.77L89.22-6.77L89.22-6.77Q88.03-7.17 87.04-8.13L87.04-8.13L87.04-8.13Q86.05-9.08 86.05-10.51L86.05-10.51L86.05-10.51Q86.05-12.95 87.60-14.18L87.60-14.18L87.60-14.18Q89.15-15.40 91.80-15.40L91.80-15.40L91.80-15.40Q92.96-15.40 94.23-15.08L94.23-15.08L94.23-15.08Q95.51-14.76 95.51-13.99L95.51-13.99L95.51-13.99Q95.51-13.23 95.25-12.58L95.25-12.58L95.25-12.58Q95.00-11.93 94.62-11.93L94.62-11.93L94.62-11.93Q94.42-11.93 94.35-12.09L94.35-12.09L94.35-12.09Q94.28-12.24 94.11-12.44L94.11-12.44L94.11-12.44Q93.94-12.65 93.30-12.97L93.30-12.97L93.30-12.97Q92.65-13.29 92.19-13.29L92.19-13.29L92.19-13.29Q91.73-13.29 91.58-13.28L91.58-13.28L91.58-13.28Q91.43-13.26 91.05-13.18L91.05-13.18L91.05-13.18Q90.68-13.09 90.37-12.92L90.37-12.92L90.37-12.92Q89.59-12.48 89.59-11.63L89.59-11.63L89.59-11.63Q89.59-11.08 89.83-10.83L89.83-10.83L89.83-10.83Q90.07-10.57 90.20-10.44L90.20-10.44L90.20-10.44Q90.34-10.30 90.68-10.12L90.68-10.12L90.68-10.12Q91.02-9.93 91.15-9.86L91.15-9.86L91.15-9.86Q91.29-9.79 91.77-9.57L91.77-9.57L91.77-9.57Q92.24-9.35 92.38-9.28L92.38-9.28L92.38-9.28Q95.98-7.58 95.98-4.66ZM102.95-13.26L102.95-13.26L103.05-14.62L103.05-14.62Q103.09-14.93 103.53-14.93L103.53-14.93L104.72-14.93L104.58-17.65L104.58-17.78L104.58-17.78Q104.58-18.56 105.77-19.28L105.77-19.28L105.77-19.28Q106.96-19.99 107.95-19.99L107.95-19.99L107.95-19.99Q108.26-19.99 108.26-19.72L108.26-19.72L108.26-19.69L108.26-19.69Q108.12-18.77 107.98-14.96L107.98-14.96L107.98-14.96Q109.48-14.96 109.89-15.03L109.89-15.03L109.89-15.03Q110.30-15.10 110.33-15.10L110.33-15.10L110.33-15.10Q110.57-15.10 110.57-14.69L110.57-14.69L110.57-14.69Q110.57-14.28 110.19-13.65L110.19-13.65L110.19-13.65Q109.82-13.02 109.38-12.99L109.38-12.99L107.95-12.99L107.95-12.99Q107.92-11.83 107.92-9.10L107.92-9.10L107.92-9.10Q107.92-6.36 107.97-4.59L107.97-4.59L107.97-4.59Q108.02-2.82 108.09-1.92L108.09-1.92L108.09-1.92Q108.15-1.02 108.24-0.48L108.24-0.48L108.24-0.48Q108.32 0.07 108.38 0.31L108.38 0.31L108.38 0.31Q108.43 0.54 108.43 0.61L108.43 0.61L108.43 0.61Q108.43 0.95 107.98 0.99L107.98 0.99L107.98 0.99Q106.66 0.99 105.35 0.61L105.35 0.61L105.35 0.61Q104.04 0.24 104.04-0.68L104.04-0.68L104.04-0.68Q104.75-6.39 104.75-12.95L104.75-12.95L104.75-12.95Q103.84-12.95 103.36-12.89L103.36-12.89L103.33-12.89L103.33-12.89Q103.02-12.89 102.95-13.26ZM115.46-18.26L115.46-18.26L115.43-14.96L115.43-14.96Q115.43-14.76 115.57-14.76L115.57-14.76L115.57-14.76Q115.70-14.76 115.84-14.86L115.84-14.86L115.84-14.86Q116.69-15.44 118.52-15.44L118.52-15.44L118.52-15.44Q121.62-15.44 122.81-13.33L122.81-13.33L122.81-13.33Q123.25-12.55 123.25-11.25L123.25-11.25L123.25-11.25Q123.25-9.96 123.10-7.68L123.10-7.68L123.10-7.68Q122.94-5.41 122.94-4.45L122.94-4.45L122.94-4.45Q122.94-1.12 123.90-0.03L123.90-0.03L123.90-0.03Q124.07 0.14 124.07 0.31L124.07 0.31L124.07 0.31Q124.07 0.65 122.60 0.65L122.60 0.65L122.60 0.65Q118.66 0.65 118.66-3.03L118.66-3.03L118.66-3.03Q118.66-4.45 119.34-7.04L119.34-7.04L119.34-7.04Q120.02-9.62 120.02-10.85L120.02-10.85L120.02-10.85Q120.02-12.07 119.44-12.73L119.44-12.73L119.44-12.73Q118.86-13.40 117.84-13.40L117.84-13.40L117.84-13.40Q116.82-13.40 116.23-12.95L116.23-12.95L116.23-12.95Q115.63-12.51 115.50-12.04L115.50-12.04L115.40-11.59L115.40-11.59Q115.36-10.95 115.36-7.48L115.36-7.48L115.36-7.48Q115.36-4.01 115.53-2.98L115.53-2.98L115.53-2.98Q115.70-1.94 115.70-1.80L115.70-1.80L115.70-1.80Q115.70-0.82 114.38-0.05L114.38-0.05L114.38-0.05Q113.05 0.71 111.76 0.71L111.76 0.71L111.76 0.71Q111.28 0.71 111.28 0.17L111.28 0.17L111.35-0.48L111.35-0.48Q112.10-6.19 112.10-12.85L112.10-12.85L112.10-12.85Q112.10-15.44 111.89-18.09L111.89-18.09L111.86-18.84L111.86-18.84Q111.79-19.79 111.47-20.47L111.47-20.47L111.47-20.47Q111.15-21.15 110.87-21.35L110.87-21.35L110.57-21.52L110.57-21.52Q110.33-21.66 110.33-21.83L110.33-21.83L110.33-21.83Q110.33-22.30 111.93-23.00L111.93-23.00L111.93-23.00Q113.53-23.70 114.39-23.70L114.39-23.70L114.39-23.70Q115.26-23.70 115.33-23.32L115.33-23.32L115.33-23.32Q115.46-21.59 115.46-18.26ZM128.59-18.19L128.59-18.19L127.77-18.22L127.77-18.22Q126.85-18.22 126.58-17.78L126.58-17.78L126.58-17.78Q126.51-17.68 126.41-17.68L126.41-17.68L126.41-17.68Q125.97-17.68 125.97-19.19L125.97-19.19L125.97-19.19Q125.97-20.71 126.43-21.11L126.43-21.11L126.43-21.11Q126.89-21.52 128.03-21.52L128.03-21.52L128.03-21.52Q129.17-21.52 129.57-21.13L129.57-21.13L129.57-21.13Q129.98-20.74 129.98-19.82L129.98-19.82L129.98-19.82Q129.98-18.90 129.68-18.55L129.68-18.55L129.68-18.55Q129.37-18.19 128.59-18.19ZM125.87-1.02L125.87-1.02L126.24-8.94L126.24-8.94Q126.24-11.76 125.60-12.78L125.60-12.78L125.60-12.78Q125.39-13.12 125.12-13.29L125.12-13.29L125.12-13.29Q124.92-13.36 124.92-13.57L124.92-13.57L124.92-13.57Q124.92-14.18 126.65-14.76L126.65-14.76L126.65-14.76Q128.38-15.33 129.18-15.33L129.18-15.33L129.18-15.33Q129.98-15.33 130.02-14.93L130.02-14.93L130.02-14.93Q130.02-14.25 129.83-11.07L129.83-11.07L129.83-11.07Q129.64-7.89 129.64-4.39L129.64-4.39L129.64-4.39Q129.64-0.88 130.05-0.03L130.05-0.03L130.05-0.03Q130.15 0.14 130.15 0.31L130.15 0.31L130.15 0.31Q130.15 0.75 128.86 0.75L128.86 0.75L128.86 0.75Q127.57 0.75 126.21 0.07L126.21 0.07L126.21 0.07Q125.87-0.10 125.87-1.02ZM142.56-4.66L142.56-4.66L142.56-4.66Q142.56-3.20 142.00-2.11L142.00-2.11L142.00-2.11Q141.44-1.02 140.73-0.51L140.73-0.51L140.73-0.51Q140.01 0 139.03 0.31L139.03 0.31L139.03 0.31Q137.73 0.71 136.68 0.71L136.68 0.71L136.68 0.71Q134.47 0.71 133.01-0.15L133.01-0.15L133.01-0.15Q131.55-1.02 131.55-2.92L131.55-2.92L131.55-2.92Q131.55-4.05 132.16-4.76L132.16-4.76L132.16-4.76Q133.11-5.81 134.44-5.81L134.44-5.81L134.44-5.81Q134.84-5.81 134.84-5.44L134.84-5.44L134.84-5.44Q134.84-5.41 134.69-4.91L134.69-4.91L134.69-4.91Q134.54-4.42 134.54-3.67L134.54-3.67L134.54-3.67Q134.54-2.92 135.13-2.35L135.13-2.35L135.13-2.35Q135.73-1.77 136.58-1.77L136.58-1.77L136.58-1.77Q137.43-1.77 137.94-2.06L137.94-2.06L137.94-2.06Q138.45-2.35 138.65-2.79L138.65-2.79L138.65-2.79Q138.96-3.40 138.96-3.94L138.96-3.94L138.96-3.94Q138.96-4.93 137.97-5.64L137.97-5.64L137.97-5.64Q136.99-6.36 135.80-6.77L135.80-6.77L135.80-6.77Q134.61-7.17 133.62-8.13L133.62-8.13L133.62-8.13Q132.63-9.08 132.63-10.51L132.63-10.51L132.63-10.51Q132.63-12.95 134.18-14.18L134.18-14.18L134.18-14.18Q135.73-15.40 138.38-15.40L138.38-15.40L138.38-15.40Q139.54-15.40 140.81-15.08L140.81-15.08L140.81-15.08Q142.09-14.76 142.09-13.99L142.09-13.99L142.09-13.99Q142.09-13.23 141.83-12.58L141.83-12.58L141.83-12.58Q141.58-11.93 141.20-11.93L141.20-11.93L141.20-11.93Q141.00-11.93 140.93-12.09L140.93-12.09L140.93-12.09Q140.86-12.24 140.69-12.44L140.69-12.44L140.69-12.44Q140.52-12.65 139.88-12.97L139.88-12.97L139.88-12.97Q139.23-13.29 138.77-13.29L138.77-13.29L138.77-13.29Q138.31-13.29 138.16-13.28L138.16-13.28L138.16-13.28Q138.01-13.26 137.63-13.18L137.63-13.18L137.63-13.18Q137.26-13.09 136.95-12.92L136.95-12.92L136.95-12.92Q136.17-12.48 136.17-11.63L136.17-11.63L136.17-11.63Q136.17-11.08 136.41-10.83L136.41-10.83L136.41-10.83Q136.65-10.57 136.78-10.44L136.78-10.44L136.78-10.44Q136.92-10.30 137.26-10.12L137.26-10.12L137.26-10.12Q137.60-9.93 137.73-9.86L137.73-9.86L137.73-9.86Q137.87-9.79 138.35-9.57L138.35-9.57L138.35-9.57Q138.82-9.35 138.96-9.28L138.96-9.28L138.96-9.28Q142.56-7.58 142.56-4.66ZM153.54-18.19L153.54-18.19L152.73-18.22L152.73-18.22Q151.81-18.22 151.54-17.78L151.54-17.78L151.54-17.78Q151.47-17.68 151.37-17.68L151.37-17.68L151.37-17.68Q150.93-17.68 150.93-19.19L150.93-19.19L150.93-19.19Q150.93-20.71 151.39-21.11L151.39-21.11L151.39-21.11Q151.84-21.52 152.98-21.52L152.98-21.52L152.98-21.52Q154.12-21.52 154.53-21.13L154.53-21.13L154.53-21.13Q154.94-20.74 154.94-19.82L154.94-19.82L154.94-19.82Q154.94-18.90 154.63-18.55L154.63-18.55L154.63-18.55Q154.33-18.19 153.54-18.19ZM150.82-1.02L150.82-1.02L151.20-8.94L151.20-8.94Q151.20-11.76 150.55-12.78L150.55-12.78L150.55-12.78Q150.35-13.12 150.08-13.29L150.08-13.29L150.08-13.29Q149.87-13.36 149.87-13.57L149.87-13.57L149.87-13.57Q149.87-14.18 151.61-14.76L151.61-14.76L151.61-14.76Q153.34-15.33 154.14-15.33L154.14-15.33L154.14-15.33Q154.94-15.33 154.97-14.93L154.97-14.93L154.97-14.93Q154.97-14.25 154.79-11.07L154.79-11.07L154.79-11.07Q154.60-7.89 154.60-4.39L154.60-4.39L154.60-4.39Q154.60-0.88 155.01-0.03L155.01-0.03L155.01-0.03Q155.11 0.14 155.11 0.31L155.11 0.31L155.11 0.31Q155.11 0.75 153.82 0.75L153.82 0.75L153.82 0.75Q152.52 0.75 151.16 0.07L151.16 0.07L151.16 0.07Q150.82-0.10 150.82-1.02ZM167.52-4.66L167.52-4.66L167.52-4.66Q167.52-3.20 166.96-2.11L166.96-2.11L166.96-2.11Q166.40-1.02 165.68-0.51L165.68-0.51L165.68-0.51Q164.97 0 163.98 0.31L163.98 0.31L163.98 0.31Q162.69 0.71 161.64 0.71L161.64 0.71L161.64 0.71Q159.43 0.71 157.96-0.15L157.96-0.15L157.96-0.15Q156.50-1.02 156.50-2.92L156.50-2.92L156.50-2.92Q156.50-4.05 157.11-4.76L157.11-4.76L157.11-4.76Q158.07-5.81 159.39-5.81L159.39-5.81L159.39-5.81Q159.80-5.81 159.80-5.44L159.80-5.44L159.80-5.44Q159.80-5.41 159.65-4.91L159.65-4.91L159.65-4.91Q159.49-4.42 159.49-3.67L159.49-3.67L159.49-3.67Q159.49-2.92 160.09-2.35L160.09-2.35L160.09-2.35Q160.68-1.77 161.53-1.77L161.53-1.77L161.53-1.77Q162.38-1.77 162.89-2.06L162.89-2.06L162.89-2.06Q163.40-2.35 163.61-2.79L163.61-2.79L163.61-2.79Q163.91-3.40 163.91-3.94L163.91-3.94L163.91-3.94Q163.91-4.93 162.93-5.64L162.93-5.64L162.93-5.64Q161.94-6.36 160.75-6.77L160.75-6.77L160.75-6.77Q159.56-7.17 158.58-8.13L158.58-8.13L158.58-8.13Q157.59-9.08 157.59-10.51L157.59-10.51L157.59-10.51Q157.59-12.95 159.14-14.18L159.14-14.18L159.14-14.18Q160.68-15.40 163.34-15.40L163.34-15.40L163.34-15.40Q164.49-15.40 165.77-15.08L165.77-15.08L165.77-15.08Q167.04-14.76 167.04-13.99L167.04-13.99L167.04-13.99Q167.04-13.23 166.79-12.58L166.79-12.58L166.79-12.58Q166.53-11.93 166.16-11.93L166.16-11.93L166.16-11.93Q165.95-11.93 165.89-12.09L165.89-12.09L165.89-12.09Q165.82-12.24 165.65-12.44L165.65-12.44L165.65-12.44Q165.48-12.65 164.83-12.97L164.83-12.97L164.83-12.97Q164.19-13.29 163.73-13.29L163.73-13.29L163.73-13.29Q163.27-13.29 163.12-13.28L163.12-13.28L163.12-13.28Q162.96-13.26 162.59-13.18L162.59-13.18L162.59-13.18Q162.21-13.09 161.91-12.92L161.91-12.92L161.91-12.92Q161.13-12.48 161.13-11.63L161.13-11.63L161.13-11.63Q161.13-11.08 161.36-10.83L161.36-10.83L161.36-10.83Q161.60-10.57 161.74-10.44L161.74-10.44L161.74-10.44Q161.87-10.30 162.21-10.12L162.21-10.12L162.21-10.12Q162.55-9.93 162.69-9.86L162.69-9.86L162.69-9.86Q162.83-9.79 163.30-9.57L163.30-9.57L163.30-9.57Q163.78-9.35 163.91-9.28L163.91-9.28L163.91-9.28Q167.52-7.58 167.52-4.66ZM185.33-4.66L185.33-4.66L185.33-4.66Q185.33-3.20 184.77-2.11L184.77-2.11L184.77-2.11Q184.21-1.02 183.50-0.51L183.50-0.51L183.50-0.51Q182.78 0 181.80 0.31L181.80 0.31L181.80 0.31Q180.51 0.71 179.45 0.71L179.45 0.71L179.45 0.71Q177.24 0.71 175.78-0.15L175.78-0.15L175.78-0.15Q174.32-1.02 174.32-2.92L174.32-2.92L174.32-2.92Q174.32-4.05 174.93-4.76L174.93-4.76L174.93-4.76Q175.88-5.81 177.21-5.81L177.21-5.81L177.21-5.81Q177.62-5.81 177.62-5.44L177.62-5.44L177.62-5.44Q177.62-5.41 177.46-4.91L177.46-4.91L177.46-4.91Q177.31-4.42 177.31-3.67L177.31-3.67L177.31-3.67Q177.31-2.92 177.91-2.35L177.91-2.35L177.91-2.35Q178.50-1.77 179.35-1.77L179.35-1.77L179.35-1.77Q180.20-1.77 180.71-2.06L180.71-2.06L180.71-2.06Q181.22-2.35 181.42-2.79L181.42-2.79L181.42-2.79Q181.73-3.40 181.73-3.94L181.73-3.94L181.73-3.94Q181.73-4.93 180.74-5.64L180.74-5.64L180.74-5.64Q179.76-6.36 178.57-6.77L178.57-6.77L178.57-6.77Q177.38-7.17 176.39-8.13L176.39-8.13L176.39-8.13Q175.41-9.08 175.41-10.51L175.41-10.51L175.41-10.51Q175.41-12.95 176.95-14.18L176.95-14.18L176.95-14.18Q178.50-15.40 181.15-15.40L181.15-15.40L181.15-15.40Q182.31-15.40 183.58-15.08L183.58-15.08L183.58-15.08Q184.86-14.76 184.86-13.99L184.86-13.99L184.86-13.99Q184.86-13.23 184.60-12.58L184.60-12.58L184.60-12.58Q184.35-11.93 183.97-11.93L183.97-11.93L183.97-11.93Q183.77-11.93 183.70-12.09L183.70-12.09L183.70-12.09Q183.63-12.24 183.46-12.44L183.46-12.44L183.46-12.44Q183.29-12.65 182.65-12.97L182.65-12.97L182.65-12.97Q182.00-13.29 181.54-13.29L181.54-13.29L181.54-13.29Q181.08-13.29 180.93-13.28L180.93-13.28L180.93-13.28Q180.78-13.26 180.40-13.18L180.40-13.18L180.40-13.18Q180.03-13.09 179.72-12.92L179.72-12.92L179.72-12.92Q178.94-12.48 178.94-11.63L178.94-11.63L178.94-11.63Q178.94-11.08 179.18-10.83L179.18-10.83L179.18-10.83Q179.42-10.57 179.55-10.44L179.55-10.44L179.55-10.44Q179.69-10.30 180.03-10.12L180.03-10.12L180.03-10.12Q180.37-9.93 180.51-9.86L180.51-9.86L180.51-9.86Q180.64-9.79 181.12-9.57L181.12-9.57L181.12-9.57Q181.59-9.35 181.73-9.28L181.73-9.28L181.73-9.28Q185.33-7.58 185.33-4.66ZM198.05-10.20L198.05-10.20L197.98-5.85L197.98-5.85Q197.98-1.33 198.97-0.41L198.97-0.41L198.97-0.41Q199.10-0.27 199.10-0.10L199.10-0.10L199.10-0.10Q199.10 0.41 196.91 0.41L196.91 0.41L196.91 0.41Q194.72 0.41 194.58-0.88L194.58-0.88L194.58-0.88Q194.55-1.19 194.55-2.14L194.55-2.14L194.68-7.58L194.68-7.58Q194.68-7.82 194.41-7.82L194.41-7.82L194.41-7.82Q192.78-7.82 191.35-6.90L191.35-6.90L191.35-6.90Q189.92-5.98 189.92-4.56L189.92-4.56L189.92-4.56Q189.92-3.81 190.33-3.30L190.33-3.30L190.33-3.30Q190.74-2.79 191.34-2.79L191.34-2.79L191.34-2.79Q191.93-2.79 192.32-3.03L192.32-3.03L192.32-3.03Q192.71-3.26 192.78-3.30L192.78-3.30L192.78-3.30Q193.36-3.23 193.36-2.09L193.36-2.09L193.36-2.09Q193.36-0.95 192.30-0.26L192.30-0.26L192.30-0.26Q191.25 0.44 190.09 0.44L190.09 0.44L190.09 0.44Q188.94 0.44 188.11 0.03L188.11 0.03L188.11 0.03Q187.27-0.37 186.90-0.88L186.90-0.88L186.90-0.88Q186.52-1.39 186.29-2.04L186.29-2.04L186.29-2.04Q186.05-2.82 186.05-3.40L186.05-3.40L186.05-3.40Q186.05-5.78 187.54-7.21L187.54-7.21L187.54-7.21Q189.04-8.64 191.39-9.25L191.39-9.25L191.39-9.25Q194.48-9.86 194.62-10.37L194.62-10.37L194.62-10.37Q194.72-10.74 194.72-11.63L194.72-11.63L194.72-11.63Q194.72-13.43 192.88-13.43L192.88-13.43L192.88-13.43Q192.10-13.43 191.49-12.94L191.49-12.94L191.49-12.94Q190.88-12.44 190.88-11.70L190.88-11.70L191.08-10.88L191.08-10.88Q191.01-10.30 189.86-10.20L189.86-10.20L189.48-10.17L189.48-10.17Q188.46-10.17 187.87-10.68L187.87-10.68L187.87-10.68Q187.27-11.19 187.27-12.04L187.27-12.04L187.27-12.04Q187.27-12.58 187.63-13.24L187.63-13.24L187.63-13.24Q187.99-13.91 188.53-14.31L188.53-14.31L188.53-14.31Q189.07-14.72 190.21-15.05L190.21-15.05L190.21-15.05Q191.35-15.37 192.41-15.37L192.41-15.37L192.41-15.37Q193.46-15.37 194.04-15.30L194.04-15.30L194.04-15.30Q194.62-15.23 195.62-14.98L195.62-14.98L195.62-14.98Q196.62-14.72 197.29-14.01L197.29-14.01L197.29-14.01Q197.95-13.29 198.00-12.50L198.00-12.50L198.00-12.50Q198.05-11.70 198.05-10.20ZM210.66-11.70L210.49-9.11L210.63-7.92L210.63-7.92Q210.63-7.28 209.41-7.28L209.41-7.28L209.41-7.28Q206.92-7.28 206.92-9.15L206.92-9.15L206.92-9.15Q206.92-9.59 207.16-10.37L207.16-10.37L207.16-10.37Q207.40-11.15 207.40-11.73L207.40-11.73L207.40-11.73Q207.40-12.31 207.06-12.73L207.06-12.73L207.06-12.73Q206.72-13.16 206.07-13.16L206.07-13.16L206.07-13.16Q205.43-13.16 204.97-12.70L204.97-12.70L204.97-12.70Q204.51-12.24 204.41-11.76L204.41-11.76L204.27-11.29L204.27-11.29Q204.07-10.23 204.07-7.77L204.07-7.77L204.07-7.77Q204.07-5.30 204.14-3.89L204.14-3.89L204.14-3.89Q204.20-2.48 204.27-1.96L204.27-1.96L204.27-1.96Q204.34-1.43 204.34-1.33L204.34-1.33L204.34-1.33Q204.34-0.48 203.29 0.05L203.29 0.05L203.29 0.05Q202.23 0.58 201.18 0.58L201.18 0.58L201.18 0.58Q200.12 0.58 200.12 0.14L200.12 0.14L200.29-0.92L200.29-0.92Q200.77-3.88 200.77-8.64L200.77-8.64L200.77-8.64Q200.77-13.40 200.43-15.10L200.43-15.10L200.43-15.10Q200.43-15.50 201.14-15.50L201.14-15.50L201.14-15.50Q202.98-15.50 203.59-14.25L203.59-14.25L203.59-14.25Q203.63-14.11 203.71-14.11L203.71-14.11L203.71-14.11Q203.80-14.11 204.17-14.42L204.17-14.42L204.17-14.42Q205.29-15.33 206.82-15.33L206.82-15.33L206.82-15.33Q207.77-15.33 208.73-14.96L208.73-14.96L208.73-14.96Q210.66-14.18 210.66-11.70L210.66-11.70ZM223.31-3.91L223.31-3.91L223.31-3.91Q223.31-1.97 221.77-0.70L221.77-0.70L221.77-0.70Q220.22 0.58 218.08 0.58L218.08 0.58L218.08 0.58Q214.95 0.58 213.49-1.31L213.49-1.31L213.49-1.31Q212.02-3.20 212.02-6.43L212.02-6.43L212.02-6.43Q212.02-9.86 213.55-12.51L213.55-12.51L213.55-12.51Q214.30-13.87 215.70-14.65L215.70-14.65L215.70-14.65Q217.09-15.44 218.96-15.44L218.96-15.44L218.96-15.44Q221.78-15.44 222.94-13.53L222.94-13.53L222.94-13.53Q223.41-12.75 223.41-11.70L223.41-11.70L223.41-11.70Q223.41-10.06 222.05-9.25L222.05-9.25L222.05-9.25Q221.51-8.94 221.05-8.94L221.05-8.94L221.05-8.94Q220.59-8.94 220.30-8.99L220.30-8.99L220.30-8.99Q220.01-9.04 219.54-9.45L219.54-9.45L219.54-9.45Q219.06-9.86 219.06-10.57L219.06-10.57L219.06-10.57Q219.10-10.95 219.64-11.19L219.64-11.19L219.64-11.19Q220.15-11.49 220.15-12.27L220.15-12.27L220.15-12.27Q220.15-13.60 218.52-13.60L218.52-13.60L218.52-13.60Q218.11-13.60 217.55-13.24L217.55-13.24L217.55-13.24Q216.99-12.89 216.61-12.33L216.61-12.33L216.61-12.33Q216.24-11.76 215.92-10.56L215.92-10.56L215.92-10.56Q215.59-9.35 215.59-8.25L215.59-8.25L215.59-8.25Q215.59-7.14 215.68-6.58L215.68-6.58L215.68-6.58Q215.76-6.02 216.05-5.05L216.05-5.05L216.05-5.05Q216.34-4.08 217.14-3.47L217.14-3.47L217.14-3.47Q217.94-2.86 219.13-2.86L219.13-2.86L219.13-2.86Q220.56-2.86 221.65-4.05L221.65-4.05L221.65-4.05Q222.09-4.52 222.36-5.20L222.36-5.20L222.36-5.20Q222.50-5.47 222.70-5.47L222.70-5.47L222.70-5.47Q223.01-5.47 223.16-4.91L223.16-4.91L223.16-4.91Q223.31-4.35 223.31-3.91ZM236.47-10.20L236.47-10.20L236.40-5.85L236.40-5.85Q236.40-1.33 237.39-0.41L237.39-0.41L237.39-0.41Q237.52-0.27 237.52-0.10L237.52-0.10L237.52-0.10Q237.52 0.41 235.33 0.41L235.33 0.41L235.33 0.41Q233.14 0.41 233.00-0.88L233.00-0.88L233.00-0.88Q232.97-1.19 232.97-2.14L232.97-2.14L233.10-7.58L233.10-7.58Q233.10-7.82 232.83-7.82L232.83-7.82L232.83-7.82Q231.20-7.82 229.77-6.90L229.77-6.90L229.77-6.90Q228.34-5.98 228.34-4.56L228.34-4.56L228.34-4.56Q228.34-3.81 228.75-3.30L228.75-3.30L228.75-3.30Q229.16-2.79 229.76-2.79L229.76-2.79L229.76-2.79Q230.35-2.79 230.74-3.03L230.74-3.03L230.74-3.03Q231.13-3.26 231.20-3.30L231.20-3.30L231.20-3.30Q231.78-3.23 231.78-2.09L231.78-2.09L231.78-2.09Q231.78-0.95 230.72-0.26L230.72-0.26L230.72-0.26Q229.67 0.44 228.51 0.44L228.51 0.44L228.51 0.44Q227.36 0.44 226.53 0.03L226.53 0.03L226.53 0.03Q225.69-0.37 225.32-0.88L225.32-0.88L225.32-0.88Q224.94-1.39 224.71-2.04L224.71-2.04L224.71-2.04Q224.47-2.82 224.47-3.40L224.47-3.40L224.47-3.40Q224.47-5.78 225.96-7.21L225.96-7.21L225.96-7.21Q227.46-8.64 229.81-9.25L229.81-9.25L229.81-9.25Q232.90-9.86 233.04-10.37L233.04-10.37L233.04-10.37Q233.14-10.74 233.14-11.63L233.14-11.63L233.14-11.63Q233.14-13.43 231.30-13.43L231.30-13.43L231.30-13.43Q230.52-13.43 229.91-12.94L229.91-12.94L229.91-12.94Q229.30-12.44 229.30-11.70L229.30-11.70L229.50-10.88L229.50-10.88Q229.43-10.30 228.28-10.20L228.28-10.20L227.90-10.17L227.90-10.17Q226.88-10.17 226.29-10.68L226.29-10.68L226.29-10.68Q225.69-11.19 225.69-12.04L225.69-12.04L225.69-12.04Q225.69-12.58 226.05-13.24L226.05-13.24L226.05-13.24Q226.41-13.91 226.95-14.31L226.95-14.31L226.95-14.31Q227.49-14.72 228.63-15.05L228.63-15.05L228.63-15.05Q229.77-15.37 230.83-15.37L230.83-15.37L230.83-15.37Q231.88-15.37 232.46-15.30L232.46-15.30L232.46-15.30Q233.04-15.23 234.04-14.98L234.04-14.98L234.04-14.98Q235.04-14.72 235.71-14.01L235.71-14.01L235.71-14.01Q236.37-13.29 236.42-12.50L236.42-12.50L236.42-12.50Q236.47-11.70 236.47-10.20ZM248.88-4.66L248.88-4.66L248.88-4.66Q248.88-3.20 248.32-2.11L248.32-2.11L248.32-2.11Q247.76-1.02 247.04-0.51L247.04-0.51L247.04-0.51Q246.33 0 245.34 0.31L245.34 0.31L245.34 0.31Q244.05 0.71 243.00 0.71L243.00 0.71L243.00 0.71Q240.79 0.71 239.33-0.15L239.33-0.15L239.33-0.15Q237.86-1.02 237.86-2.92L237.86-2.92L237.86-2.92Q237.86-4.05 238.48-4.76L238.48-4.76L238.48-4.76Q239.43-5.81 240.75-5.81L240.75-5.81L240.75-5.81Q241.16-5.81 241.16-5.44L241.16-5.44L241.16-5.44Q241.16-5.41 241.01-4.91L241.01-4.91L241.01-4.91Q240.86-4.42 240.86-3.67L240.86-3.67L240.86-3.67Q240.86-2.92 241.45-2.35L241.45-2.35L241.45-2.35Q242.05-1.77 242.90-1.77L242.90-1.77L242.90-1.77Q243.75-1.77 244.26-2.06L244.26-2.06L244.26-2.06Q244.77-2.35 244.97-2.79L244.97-2.79L244.97-2.79Q245.28-3.40 245.28-3.94L245.28-3.94L245.28-3.94Q245.28-4.93 244.29-5.64L244.29-5.64L244.29-5.64Q243.30-6.36 242.11-6.77L242.11-6.77L242.11-6.77Q240.92-7.17 239.94-8.13L239.94-8.13L239.94-8.13Q238.95-9.08 238.95-10.51L238.95-10.51L238.95-10.51Q238.95-12.95 240.50-14.18L240.50-14.18L240.50-14.18Q242.05-15.40 244.70-15.40L244.70-15.40L244.70-15.40Q245.85-15.40 247.13-15.08L247.13-15.08L247.13-15.08Q248.40-14.76 248.40-13.99L248.40-13.99L248.40-13.99Q248.40-13.23 248.15-12.58L248.15-12.58L248.15-12.58Q247.89-11.93 247.52-11.93L247.52-11.93L247.52-11.93Q247.32-11.93 247.25-12.09L247.25-12.09L247.25-12.09Q247.18-12.24 247.01-12.44L247.01-12.44L247.01-12.44Q246.84-12.65 246.19-12.97L246.19-12.97L246.19-12.97Q245.55-13.29 245.09-13.29L245.09-13.29L245.09-13.29Q244.63-13.29 244.48-13.28L244.48-13.28L244.48-13.28Q244.32-13.26 243.95-13.18L243.95-13.18L243.95-13.18Q243.58-13.09 243.27-12.92L243.27-12.92L243.27-12.92Q242.49-12.48 242.49-11.63L242.49-11.63L242.49-11.63Q242.49-11.08 242.73-10.83L242.73-10.83L242.73-10.83Q242.96-10.57 243.10-10.44L243.10-10.44L243.10-10.44Q243.24-10.30 243.58-10.12L243.58-10.12L243.58-10.12Q243.92-9.93 244.05-9.86L244.05-9.86L244.05-9.86Q244.19-9.79 244.66-9.57L244.66-9.57L244.66-9.57Q245.14-9.35 245.28-9.28L245.28-9.28L245.28-9.28Q248.88-7.58 248.88-4.66ZM257.92 0.20L257.92 0.20L257.92 0.20Q258.40-2.18 258.40-6.48L258.40-6.48L258.40-6.48Q258.40-10.78 258.37-11.56L258.37-11.56L258.37-11.56Q258.33-12.34 257.89-12.82L257.89-12.82L257.89-12.82Q257.45-13.29 257.13-13.36L257.13-13.36L257.13-13.36Q256.80-13.43 256.22-13.43L256.22-13.43L256.22-13.43Q255.65-13.43 255.10-12.90L255.10-12.90L255.10-12.90Q254.56-12.38 254.46-11.83L254.46-11.83L254.32-11.29L254.32-11.29Q254.22-10.27 254.22-6.77L254.22-6.77L254.22-6.77Q254.22-3.26 254.37-2.36L254.37-2.36L254.37-2.36Q254.52-1.46 254.52-1.16L254.52-1.16L254.52-1.16Q254.52-0.85 254.25-0.54L254.25-0.54L254.25-0.54Q253.10 0.68 250.99 0.68L250.99 0.68L250.99 0.68Q250.24 0.68 250.24 0.24L250.24 0.24L250.24 0.24Q250.92-3.84 250.92-10.17L250.92-10.17L250.92-10.17Q250.92-12.51 250.82-13.33L250.82-13.33L250.68-14.42L250.68-14.42Q250.65-14.79 250.55-15.23L250.55-15.23L250.55-15.23Q250.55-15.64 251.60-15.64L251.60-15.64L251.60-15.64Q253.16-15.64 253.67-14.48L253.67-14.48L253.67-14.48Q253.71-14.35 253.81-14.35L253.81-14.35L253.81-14.35Q253.91-14.35 254.29-14.62L254.29-14.62L254.29-14.62Q255.41-15.50 257.31-15.50L257.31-15.50L257.31-15.50Q258.40-15.50 259.45-15.10L259.45-15.10L259.45-15.10Q260.51-14.69 260.92-14.01L260.92-14.01L260.92-14.01Q260.95-13.94 261.02-13.94L261.02-13.94L261.02-13.94Q261.09-13.94 261.22-14.08L261.22-14.08L261.22-14.08Q262.65-15.50 264.93-15.50L264.93-15.50L264.93-15.50Q267.95-15.50 269.08-13.33L269.08-13.33L269.08-13.33Q269.48-12.48 269.48-11.19L269.48-11.19L269.48-11.19Q269.48-9.89 269.28-7.51L269.28-7.51L269.28-7.51Q269.08-5.13 269.08-3.88L269.08-3.88L269.08-3.88Q269.08-2.62 269.33-1.60L269.33-1.60L269.33-1.60Q269.59-0.58 269.84-0.14L269.84-0.14L269.84-0.14Q270.10 0.31 270.10 0.37L270.10 0.37L270.10 0.37Q270.10 0.82 269.14 0.82L269.14 0.82L269.14 0.82Q266.80 0.82 265.88-0.14L265.88-0.14L265.88-0.14Q264.96-1.09 264.96-2.64L264.96-2.64L264.96-2.64Q264.96-4.18 265.59-6.82L265.59-6.82L265.59-6.82Q266.22-9.45 266.22-10.78L266.22-10.78L266.22-10.78Q266.22-13.46 264.04-13.46L264.04-13.46L264.04-13.46Q263.13-13.46 262.58-12.92L262.58-12.92L262.58-12.92Q262.04-12.38 261.94-11.83L261.94-11.83L261.87-11.29L261.87-11.29Q261.73-9.72 261.73-7.51L261.73-7.51L261.73-7.51Q261.73-5.30 261.80-4.06L261.80-4.06L261.80-4.06Q261.87-2.82 261.94-2.13L261.94-2.13L261.94-2.13Q262.00-1.43 262.00-1.29L262.00-1.29L262.00-1.29Q262.00-0.34 260.81 0.17L260.81 0.17L260.81 0.17Q259.62 0.68 258.50 0.68L258.50 0.68L258.50 0.68Q257.92 0.68 257.92 0.20ZM283.36 9.42L283.36 9.42L283.36 9.42Q283.36 9.83 282.95 9.83L282.95 9.83L282.91 9.83L282.91 9.83Q281.79 9.83 280.38 9.04L280.38 9.04L280.38 9.04Q278.97 8.26 278.97 7.24L278.97 7.24L278.97 7.24Q278.97 6.22 280.26 3.69L280.26 3.69L280.26 3.69Q281.55 1.16 281.55 0.31L281.55 0.31L281.55 0.31Q281.55-0.61 280.67-2.99L280.67-2.99L280.67-2.99Q279.55-6.09 278.89-8.02L278.89-8.02L278.89-8.02Q278.22-9.96 277.46-11.44L277.46-11.44L277.46-11.44Q276.69-12.92 276.35-13.19L276.35-13.19L276.01-13.43L276.01-13.43Q275.64-13.63 275.64-13.87L275.64-13.87L275.64-13.87Q275.64-14.35 277.12-14.84L277.12-14.84L277.12-14.84Q278.60-15.33 279.72-15.33L279.72-15.33L279.72-15.33Q280.23-15.33 280.57-14.52L280.57-14.52L280.57-14.52Q281.18-12.92 281.89-10.10L281.89-10.10L281.89-10.10Q283.63-4.32 284.07-4.32L284.07-4.32L284.07-4.32Q284.38-4.32 285.31-6.70L285.31-6.70L285.31-6.70Q286.25-9.08 286.25-10.54L286.25-10.54L286.25-10.54Q286.25-13.09 284.75-13.53L284.75-13.53L284.75-13.53Q284.41-13.60 284.41-13.87L284.41-13.87L284.41-13.87Q284.41-14.48 286.01-15.05L286.01-15.05L286.01-15.05Q287.61-15.61 288.90-15.61L288.90-15.61L288.90-15.61Q290.02-15.61 290.02-14.14L290.02-14.14L290.02-14.14Q290.02-13.02 289.54-11.53L289.54-11.53L289.54-11.53Q289.07-10.03 288.66-9.16L288.66-9.16L288.66-9.16Q288.25-8.30 286.64-5.15L286.64-5.15L286.64-5.15Q285.02-2.01 283.97 0.37L283.97 0.37L283.97 0.37Q282.81 3.23 282.81 6.19L282.81 6.19L282.81 6.19Q282.81 7.75 283.08 8.53L283.08 8.53L283.08 8.53Q283.36 9.32 283.36 9.42ZM293.22-12.82L293.22-12.82L293.22-12.82Q292.33-12.78 291.94-12.77L291.94-12.77L291.94-12.77Q291.55-12.75 291.55-12.95L291.55-12.95L291.55-12.95Q291.55-13.16 291.75-13.36L291.75-13.36L291.75-13.36Q293.93-15.37 299.10-15.37L299.10-15.37L299.10-15.37Q300.87-15.37 301.89-15.06L301.89-15.06L302.23-14.96L302.23-14.96Q302.63-14.79 302.63-14.59L302.63-14.59L302.63-14.59Q302.63-14.42 302.40-14.31L302.40-14.31L302.40-14.31Q301.48-14.04 300.63-13.45L300.63-13.45L300.63-13.45Q299.78-12.85 299.78-12.61L299.78-12.61L299.98-12.38L299.98-12.38Q301.07-11.76 301.67-10.44L301.67-10.44L301.67-10.44Q302.26-9.11 302.33-8.09L302.33-8.09L302.40-7.04L302.40-7.04Q302.40-3.67 300.53-1.50L300.53-1.50L300.53-1.50Q298.66 0.68 295.43 0.68L295.43 0.68L295.43 0.68Q293.79 0.68 292.60 0.10L292.60 0.10L292.60 0.10Q291.41-0.48 290.85-1.21L290.85-1.21L290.85-1.21Q290.29-1.94 289.95-2.86L289.95-2.86L289.95-2.86Q289.54-4.11 289.54-5.46L289.54-5.46L289.54-5.46Q289.54-6.80 290.00-8.16L290.00-8.16L290.00-8.16Q290.46-9.52 291.06-10.17L291.06-10.17L291.06-10.17Q291.65-10.81 292.40-11.22L292.40-11.22L292.40-11.22Q293.35-11.73 293.93-11.73L293.93-11.73L293.93-11.73Q294.51-11.73 294.51-11.49L294.51-11.49L294.30-11.15L294.30-11.15Q293.56-10.27 293.23-8.84L293.23-8.84L293.23-8.84Q292.91-7.41 292.91-6.31L292.91-6.31L292.91-6.31Q292.91-5.20 293.18-4.11L293.18-4.11L293.18-4.11Q293.45-3.03 293.79-2.50L293.79-2.50L293.79-2.50Q294.13-1.97 294.58-1.70L294.58-1.70L294.58-1.70Q295.22-1.29 295.94-1.29L295.94-1.29L295.94-1.29Q296.65-1.29 297.33-1.85L297.33-1.85L297.33-1.85Q298.01-2.41 298.32-3.33L298.32-3.33L298.32-3.33Q298.93-5.03 298.93-6.83L298.93-6.83L298.93-6.83Q298.93-9.69 297.48-11.25L297.48-11.25L297.48-11.25Q296.04-12.82 293.22-12.82ZM316.20-15.13L316.20-15.13L316.20-15.13Q315.59-11.46 315.59-5.78L315.59-5.78L315.59-5.78Q315.59-1.60 315.93-0.27L315.93-0.27L316.06 0.17L316.06 0.17Q316.06 0.61 315.32 0.61L315.32 0.61L315.32 0.61Q312.70 0.61 312.32-0.85L312.32-0.85L312.32-0.85Q312.29-1.02 312.17-1.02L312.17-1.02L312.17-1.02Q312.05-1.02 311.95-0.88L311.95-0.88L311.95-0.88Q310.90 0.51 308.69 0.51L308.69 0.51L308.69 0.51Q307.46 0.51 306.14-0.10L306.14-0.10L306.14-0.10Q305.32-0.48 304.81-1.41L304.81-1.41L304.81-1.41Q304.30-2.35 304.30-3.71L304.30-3.71L304.81-11.15L304.81-11.15Q304.81-13.50 304.33-14.48L304.33-14.48L304.33-14.48Q304.16-14.86 304.16-14.96L304.16-14.96L304.16-14.96Q304.16-15.16 304.33-15.23L304.33-15.23L304.33-15.23Q304.88-15.40 305.73-15.40L305.73-15.40L305.73-15.40Q309.03-15.40 309.03-12.68L309.03-12.68L309.03-12.68Q309.03-11.83 308.33-8.81L308.33-8.81L308.33-8.81Q307.63-5.78 307.63-4.50L307.63-4.50L307.63-4.50Q307.63-3.23 308.19-2.55L308.19-2.55L308.19-2.55Q308.75-1.87 309.76-1.87L309.76-1.87L309.76-1.87Q310.76-1.87 311.34-2.58L311.34-2.58L311.34-2.58Q311.92-3.30 312.02-4.01L312.02-4.01L312.12-4.73L312.12-4.73Q312.26-5.92 312.26-8.91L312.26-8.91L312.26-8.91Q312.26-11.90 312.07-12.70L312.07-12.70L312.07-12.70Q311.88-13.50 311.88-13.70L311.88-13.70L311.88-13.70Q311.88-14.55 313.24-15.05L313.24-15.05L313.24-15.05Q314.60-15.54 315.69-15.54L315.69-15.54L315.69-15.54Q316.20-15.54 316.20-15.13ZM328.37-8.50L328.37-8.50L328.54-1.70L328.54-1.70Q328.54 0.44 327.98 2.09L327.98 2.09L327.98 2.09Q327.42 3.74 326.60 4.56L326.60 4.56L326.60 4.56Q324.94 6.29 323.68 6.53L323.68 6.53L323.10 6.66L323.10 6.66Q322.59 6.66 322.59 6.36L322.59 6.36L322.76 5.85L322.76 5.85Q325.24 2.41 325.24-11.02L325.24-11.02L325.24-11.02Q325.24-12.24 325.21-12.85L325.21-12.85L325.21-12.85Q324.50-12.85 323.78-12.75L323.78-12.75L323.75-12.75L323.75-12.75Q323.37-12.75 323.37-13.12L323.37-13.12L323.48-14.42L323.48-14.42Q323.51-14.72 323.95-14.72L323.95-14.72L325.18-14.72L325.18-17L325.24-20.23L325.24-20.23Q325.24-20.47 325.33-20.76L325.33-20.76L325.33-20.76Q325.41-21.05 326.06-21.64L326.06-21.64L326.06-21.64Q326.71-22.24 327.96-22.73L327.96-22.73L327.96-22.73Q329.22-23.22 330.12-23.22L330.12-23.22L330.12-23.22Q331.02-23.22 331.02-22.68L331.02-22.68L331.02-22.68Q331.02-22.47 330.72-22.34L330.72-22.34L330.72-22.34Q329.73-22.03 329.10-20.59L329.10-20.59L329.10-20.59Q328.47-19.14 328.47-15.67L328.47-15.67L328.47-14.72L328.47-14.72Q330.21-14.79 330.75-14.89L330.75-14.89L330.75-14.89Q330.99-14.89 330.99-14.48L330.99-14.48L330.99-14.48Q330.99-14.08 330.63-13.48L330.63-13.48L330.63-13.48Q330.28-12.89 329.75-12.87L329.75-12.87L329.75-12.87Q329.22-12.85 328.44-12.89L328.44-12.89L328.44-12.89Q328.37-10.30 328.37-8.50ZM343.54-15.13L343.54-15.13L343.54-15.13Q342.92-11.46 342.92-5.78L342.92-5.78L342.92-5.78Q342.92-1.60 343.26-0.27L343.26-0.27L343.40 0.17L343.40 0.17Q343.40 0.61 342.65 0.61L342.65 0.61L342.65 0.61Q340.03 0.61 339.66-0.85L339.66-0.85L339.66-0.85Q339.63-1.02 339.51-1.02L339.51-1.02L339.51-1.02Q339.39-1.02 339.29-0.88L339.29-0.88L339.29-0.88Q338.23 0.51 336.02 0.51L336.02 0.51L336.02 0.51Q334.80 0.51 333.47-0.10L333.47-0.10L333.47-0.10Q332.66-0.48 332.15-1.41L332.15-1.41L332.15-1.41Q331.64-2.35 331.64-3.71L331.64-3.71L332.15-11.15L332.15-11.15Q332.15-13.50 331.67-14.48L331.67-14.48L331.67-14.48Q331.50-14.86 331.50-14.96L331.50-14.96L331.50-14.96Q331.50-15.16 331.67-15.23L331.67-15.23L331.67-15.23Q332.21-15.40 333.06-15.40L333.06-15.40L333.06-15.40Q336.36-15.40 336.36-12.68L336.36-12.68L336.36-12.68Q336.36-11.83 335.67-8.81L335.67-8.81L335.67-8.81Q334.97-5.78 334.97-4.50L334.97-4.50L334.97-4.50Q334.97-3.23 335.53-2.55L335.53-2.55L335.53-2.55Q336.09-1.87 337.09-1.87L337.09-1.87L337.09-1.87Q338.10-1.87 338.67-2.58L338.67-2.58L338.67-2.58Q339.25-3.30 339.35-4.01L339.35-4.01L339.46-4.73L339.46-4.73Q339.59-5.92 339.59-8.91L339.59-8.91L339.59-8.91Q339.59-11.90 339.41-12.70L339.41-12.70L339.41-12.70Q339.22-13.50 339.22-13.70L339.22-13.70L339.22-13.70Q339.22-14.55 340.58-15.05L340.58-15.05L340.58-15.05Q341.94-15.54 343.03-15.54L343.03-15.54L343.03-15.54Q343.54-15.54 343.54-15.13ZM355.95-3.91L355.95-3.91L355.95-3.91Q355.95-1.97 354.40-0.70L354.40-0.70L354.40-0.70Q352.85 0.58 350.71 0.58L350.71 0.58L350.71 0.58Q347.58 0.58 346.12-1.31L346.12-1.31L346.12-1.31Q344.66-3.20 344.66-6.43L344.66-6.43L344.66-6.43Q344.66-9.86 346.19-12.51L346.19-12.51L346.19-12.51Q346.94-13.87 348.33-14.65L348.33-14.65L348.33-14.65Q349.72-15.44 351.59-15.44L351.59-15.44L351.59-15.44Q354.42-15.44 355.57-13.53L355.57-13.53L355.57-13.53Q356.05-12.75 356.05-11.70L356.05-11.70L356.05-11.70Q356.05-10.06 354.69-9.25L354.69-9.25L354.69-9.25Q354.14-8.94 353.69-8.94L353.69-8.94L353.69-8.94Q353.23-8.94 352.94-8.99L352.94-8.99L352.94-8.99Q352.65-9.04 352.17-9.45L352.17-9.45L352.17-9.45Q351.70-9.86 351.70-10.57L351.70-10.57L351.70-10.57Q351.73-10.95 352.27-11.19L352.27-11.19L352.27-11.19Q352.78-11.49 352.78-12.27L352.78-12.27L352.78-12.27Q352.78-13.60 351.15-13.60L351.15-13.60L351.15-13.60Q350.74-13.60 350.18-13.24L350.18-13.24L350.18-13.24Q349.62-12.89 349.25-12.33L349.25-12.33L349.25-12.33Q348.87-11.76 348.55-10.56L348.55-10.56L348.55-10.56Q348.23-9.35 348.23-8.25L348.23-8.25L348.23-8.25Q348.23-7.14 348.31-6.58L348.31-6.58L348.31-6.58Q348.40-6.02 348.69-5.05L348.69-5.05L348.69-5.05Q348.98-4.08 349.78-3.47L349.78-3.47L349.78-3.47Q350.57-2.86 351.76-2.86L351.76-2.86L351.76-2.86Q353.19-2.86 354.28-4.05L354.28-4.05L354.28-4.05Q354.72-4.52 354.99-5.20L354.99-5.20L354.99-5.20Q355.13-5.47 355.33-5.47L355.33-5.47L355.33-5.47Q355.64-5.47 355.79-4.91L355.79-4.91L355.79-4.91Q355.95-4.35 355.95-3.91ZM364.48-11.02L364.48-11.02L364.48-11.02Q364.34-10.88 364.34-10.73L364.34-10.73L364.34-10.73Q364.34-10.57 364.97-10.44L364.97-10.44L364.97-10.44Q365.60-10.30 366.35-9.69L366.35-9.69L366.35-9.69Q367.10-9.08 367.47-8.36L367.47-8.36L367.47-8.36Q368.19-6.97 368.25-5.92L368.25-5.92L368.29-5.47L368.29-5.47Q368.46-1.50 369.75-0.03L369.75-0.03L369.75-0.03Q369.92 0.20 369.92 0.31L369.92 0.31L369.92 0.31Q369.92 0.68 368.97 0.68L368.97 0.68L368.97 0.68Q366.11 0.68 365.33-0.51L365.33-0.51L365.33-0.51Q364.92-0.99 364.92-3.47L364.92-3.47L364.92-4.32L364.92-4.32Q364.92-7.48 364.14-8.70L364.14-8.70L364.14-8.70Q363.73-9.28 363.14-9.28L363.14-9.28L363.14-9.28Q362.54-9.28 361.90-8.25L361.90-8.25L361.90-8.25Q361.25-7.21 361.25-6.49L361.25-6.49L361.25-6.49Q361.25-3.64 361.39-2.52L361.39-2.52L361.39-2.52Q361.52-1.39 361.52-1.36L361.52-1.36L361.52-1.36Q361.52-0.37 360.18 0.17L360.18 0.17L360.18 0.17Q358.84 0.71 357.65 0.71L357.65 0.71L357.65 0.71Q357.20 0.71 357.20 0.17L357.20 0.17L357.20 0.03L357.20 0.03Q358.02-4.15 358.02-13.16L358.02-13.16L358.02-13.16Q358.02-16.12 357.88-18.16L357.88-18.16L357.82-18.84L357.82-18.84Q357.75-19.79 357.43-20.47L357.43-20.47L357.43-20.47Q357.10-21.15 356.80-21.35L356.80-21.35L356.52-21.52L356.52-21.52Q356.29-21.66 356.29-21.83L356.29-21.83L356.29-21.83Q356.29-22.37 357.92-23.05L357.92-23.05L357.92-23.05Q359.55-23.73 360.74-23.73L360.74-23.73L360.74-23.73Q361.28-23.70 361.32-23.32L361.32-23.32L361.32-23.32Q361.49-21.96 361.49-17.73L361.49-17.73L361.49-17.73Q361.49-13.50 361.28-10.98L361.28-10.98L361.28-10.98Q361.28-10.57 361.42-10.57L361.42-10.57L361.42-10.57Q361.56-10.57 361.85-10.97L361.85-10.97L361.85-10.97Q362.13-11.36 362.87-12.21L362.87-12.21L362.87-12.21Q363.60-13.06 364.84-14.18L364.84-14.18L364.84-14.18Q366.08-15.30 366.84-15.30L366.84-15.30L366.84-15.30Q367.61-15.30 368.36-14.93L368.36-14.93L368.36-14.93Q369.10-14.55 369.10-14.21L369.10-14.21L368.73-13.97L368.73-13.97Q366.79-13.26 364.48-11.02Z" fill="url(#editing-shiny-gradient)"></path></g></g><g filter="url(#editing-shiny2)"><g transform="translate(65.18588423728943, 92.65000343322754)"><path d="M-0.92 1.43L-0.92 1.43L-0.92 1.43Q-1.29 2.14-2.28 2.14L-2.28 2.14L-2.28 2.14Q-3.26 2.14-3.26 1.73L-3.26 1.73L-3.26 1.73Q-3.26 1.56-3.16 1.43L-3.16 1.43L13.06-24.96L13.06-24.96Q13.33-25.47 14.38-25.47L14.38-25.47L14.38-25.47Q15.44-25.47 15.44-25.19L15.44-25.19L15.44-25.19Q15.44-25.16-0.92 1.43ZM24.89-18.84L24.89-18.84L25.02-19.89L25.02-19.89Q25.02-21.45 23.80-21.90L23.80-21.90L23.80-21.90Q22.85-22.20 22.34-22.20L22.34-22.20L22.30-22.20L22.30-22.20Q21.28-22.20 20.54-21.88L20.54-21.88L20.54-21.88Q19.79-21.56 19.45-21.08L19.45-21.08L19.45-21.08Q18.73-20.09 18.63-19.01L18.63-19.01L18.63-19.01Q18.63-17.71 19.79-16.78L19.79-16.78L19.79-16.78Q20.94-15.84 22.59-15.15L22.59-15.15L22.59-15.15Q24.24-14.45 25.89-13.63L25.89-13.63L25.89-13.63Q27.54-12.82 28.70-11.29L28.70-11.29L28.70-11.29Q29.85-9.76 29.85-7.62L29.85-7.62L29.85-7.62Q29.85-3.43 27.22-1.36L27.22-1.36L27.22-1.36Q24.58 0.71 21.23 0.71L21.23 0.71L21.23 0.71Q17.88 0.71 15.69-0.80L15.69-0.80L15.69-0.80Q13.50-2.31 13.50-4.86L13.50-4.86L13.50-4.90L13.50-4.90Q13.50-6.15 13.89-7.09L13.89-7.09L13.89-7.09Q14.28-8.02 14.82-8.47L14.82-8.47L14.82-8.47Q15.95-9.38 16.86-9.45L16.86-9.45L17.27-9.49L17.27-9.49Q18.22-9.49 19.01-9.03L19.01-9.03L19.01-9.03Q19.79-8.57 19.79-7.75L19.79-7.75L19.79-7.75Q19.79-7.34 19.35-7.07L19.35-7.07L19.35-7.07Q18.90-6.80 18.58-6.26L18.58-6.26L18.58-6.26Q18.26-5.71 18.22-5.34L18.22-5.34L18.16-4.96L18.16-4.96Q18.16-2.89 20.06-2.21L20.06-2.21L20.06-2.21Q20.74-1.97 21.15-1.97L21.15-1.97L21.15-1.97Q23.02-1.97 24.16-3.09L24.16-3.09L24.16-3.09Q25.30-4.22 25.30-5.95L25.30-5.95L25.30-5.95Q25.30-8.02 23.53-9.32L23.53-9.32L23.53-9.32Q22.20-10.27 20.66-10.91L20.66-10.91L20.66-10.91Q19.11-11.56 18.56-11.83L18.56-11.83L18.56-11.83Q18.02-12.10 17.41-12.48L17.41-12.48L17.41-12.48Q16.80-12.85 16.05-13.53L16.05-13.53L16.05-13.53Q14.42-14.96 14.42-17.39L14.42-17.39L14.42-17.39Q14.42-19.82 15.74-21.49L15.74-21.49L15.74-21.49Q18.12-24.51 22.88-24.51L22.88-24.51L22.88-24.51Q25.40-24.51 27.13-23.55L27.13-23.55L27.13-23.55Q28.87-22.58 28.87-20.88L28.87-20.88L28.87-20.88Q28.87-19.65 28.17-18.84L28.17-18.84L28.17-18.84Q27.47-18.02 26.38-18.02L26.38-18.02L26.38-18.02Q25.87-18.02 25.38-18.22L25.38-18.22L25.38-18.22Q24.89-18.43 24.89-18.84ZM39.34-9.52L39.34-9.52L39.34-9.52Q39.34-9.52 50.97-9.62L50.97-9.62L50.97-9.62Q51.41-9.62 51.41-9.25L51.41-9.25L51.41-9.25Q51.41-7.55 50.18-7.55L50.18-7.55L38.45-7.55L38.45-7.55Q38.01-7.55 38.01-8.23L38.01-8.23L38.01-8.23Q38.01-9.52 39.34-9.52ZM65.93 9.42L65.93 9.42L65.93 9.42Q65.93 9.83 65.52 9.83L65.52 9.83L65.48 9.83L65.48 9.83Q64.36 9.83 62.95 9.04L62.95 9.04L62.95 9.04Q61.54 8.26 61.54 7.24L61.54 7.24L61.54 7.24Q61.54 6.22 62.83 3.69L62.83 3.69L62.83 3.69Q64.12 1.16 64.12 0.31L64.12 0.31L64.12 0.31Q64.12-0.61 63.24-2.99L63.24-2.99L63.24-2.99Q62.12-6.09 61.45-8.02L61.45-8.02L61.45-8.02Q60.79-9.96 60.03-11.44L60.03-11.44L60.03-11.44Q59.26-12.92 58.92-13.19L58.92-13.19L58.58-13.43L58.58-13.43Q58.21-13.63 58.21-13.87L58.21-13.87L58.21-13.87Q58.21-14.35 59.69-14.84L59.69-14.84L59.69-14.84Q61.17-15.33 62.29-15.33L62.29-15.33L62.29-15.33Q62.80-15.33 63.14-14.52L63.14-14.52L63.14-14.52Q63.75-12.92 64.46-10.10L64.46-10.10L64.46-10.10Q66.20-4.32 66.64-4.32L66.64-4.32L66.64-4.32Q66.95-4.32 67.88-6.70L67.88-6.70L67.88-6.70Q68.82-9.08 68.82-10.54L68.82-10.54L68.82-10.54Q68.82-13.09 67.32-13.53L67.32-13.53L67.32-13.53Q66.98-13.60 66.98-13.87L66.98-13.87L66.98-13.87Q66.98-14.48 68.58-15.05L68.58-15.05L68.58-15.05Q70.18-15.61 71.47-15.61L71.47-15.61L71.47-15.61Q72.59-15.61 72.59-14.14L72.59-14.14L72.59-14.14Q72.59-13.02 72.11-11.53L72.11-11.53L72.11-11.53Q71.64-10.03 71.23-9.16L71.23-9.16L71.23-9.16Q70.82-8.30 69.21-5.15L69.21-5.15L69.21-5.15Q67.59-2.01 66.54 0.37L66.54 0.37L66.54 0.37Q65.38 3.23 65.38 6.19L65.38 6.19L65.38 6.19Q65.38 7.75 65.65 8.53L65.65 8.53L65.65 8.53Q65.93 9.32 65.93 9.42ZM76.36-8.64L76.36-8.64L76.40-7.79L76.40-7.79Q76.40-7.58 76.67-7.58L76.67-7.58L76.67-7.58Q77.76-7.68 78.57-8.14L78.57-8.14L78.57-8.14Q79.39-8.60 79.80-9.18L79.80-9.18L79.80-9.18Q80.61-10.44 80.68-11.36L80.68-11.36L80.72-11.76L80.72-11.76Q80.72-13.60 79.25-13.60L79.25-13.60L79.25-13.60Q78.17-13.60 77.49-12.65L77.49-12.65L77.49-12.65Q76.36-11.15 76.36-8.64ZM83.78-4.11L83.78-4.11L83.78-4.11Q83.78-2.82 83.25-1.85L83.25-1.85L83.25-1.85Q82.72-0.88 82.06-0.43L82.06-0.43L82.06-0.43Q81.40 0.03 80.51 0.31L80.51 0.31L80.51 0.31Q79.39 0.65 78.37 0.65L78.37 0.65L78.37 0.65Q75.51 0.65 74.15-1.50L74.15-1.50L74.15-1.50Q72.79-3.64 72.79-6.95L72.79-6.95L72.79-6.95Q72.79-10.27 74.48-12.85L74.48-12.85L74.48-12.85Q76.16-15.44 79.53-15.44L79.53-15.44L79.53-15.44Q82.59-15.44 83.67-13.29L83.67-13.29L83.67-13.29Q84.12-12.48 84.12-11.75L84.12-11.75L84.12-11.75Q84.12-11.02 84.05-10.59L84.05-10.59L84.05-10.59Q83.98-10.17 83.57-9.32L83.57-9.32L83.57-9.32Q83.16-8.47 82.48-7.79L82.48-7.79L82.48-7.79Q81.80-7.11 80.34-6.49L80.34-6.49L80.34-6.49Q78.88-5.88 76.91-5.68L76.91-5.68L76.91-5.68Q76.64-5.68 76.64-5.44L76.64-5.44L76.64-5.44Q76.64-5.13 76.86-4.54L76.86-4.54L76.86-4.54Q77.08-3.94 77.35-3.54L77.35-3.54L77.35-3.54Q78.10-2.58 79.56-2.58L79.56-2.58L79.56-2.58Q81.02-2.58 82.04-3.54L82.04-3.54L82.04-3.54Q82.59-4.05 82.93-4.79L82.93-4.79L82.93-4.79Q83.06-5.07 83.28-5.07L83.28-5.07L83.28-5.07Q83.50-5.07 83.64-4.69L83.64-4.69L83.64-4.69Q83.78-4.32 83.78-4.11ZM95.98-4.66L95.98-4.66L95.98-4.66Q95.98-3.20 95.42-2.11L95.42-2.11L95.42-2.11Q94.86-1.02 94.15-0.51L94.15-0.51L94.15-0.51Q93.43 0 92.45 0.31L92.45 0.31L92.45 0.31Q91.15 0.71 90.10 0.71L90.10 0.71L90.10 0.71Q87.89 0.71 86.43-0.15L86.43-0.15L86.43-0.15Q84.97-1.02 84.97-2.92L84.97-2.92L84.97-2.92Q84.97-4.05 85.58-4.76L85.58-4.76L85.58-4.76Q86.53-5.81 87.86-5.81L87.86-5.81L87.86-5.81Q88.26-5.81 88.26-5.44L88.26-5.44L88.26-5.44Q88.26-5.41 88.11-4.91L88.11-4.91L88.11-4.91Q87.96-4.42 87.96-3.67L87.96-3.67L87.96-3.67Q87.96-2.92 88.55-2.35L88.55-2.35L88.55-2.35Q89.15-1.77 90.00-1.77L90.00-1.77L90.00-1.77Q90.85-1.77 91.36-2.06L91.36-2.06L91.36-2.06Q91.87-2.35 92.07-2.79L92.07-2.79L92.07-2.79Q92.38-3.40 92.38-3.94L92.38-3.94L92.38-3.94Q92.38-4.93 91.39-5.64L91.39-5.64L91.39-5.64Q90.41-6.36 89.22-6.77L89.22-6.77L89.22-6.77Q88.03-7.17 87.04-8.13L87.04-8.13L87.04-8.13Q86.05-9.08 86.05-10.51L86.05-10.51L86.05-10.51Q86.05-12.95 87.60-14.18L87.60-14.18L87.60-14.18Q89.15-15.40 91.80-15.40L91.80-15.40L91.80-15.40Q92.96-15.40 94.23-15.08L94.23-15.08L94.23-15.08Q95.51-14.76 95.51-13.99L95.51-13.99L95.51-13.99Q95.51-13.23 95.25-12.58L95.25-12.58L95.25-12.58Q95.00-11.93 94.62-11.93L94.62-11.93L94.62-11.93Q94.42-11.93 94.35-12.09L94.35-12.09L94.35-12.09Q94.28-12.24 94.11-12.44L94.11-12.44L94.11-12.44Q93.94-12.65 93.30-12.97L93.30-12.97L93.30-12.97Q92.65-13.29 92.19-13.29L92.19-13.29L92.19-13.29Q91.73-13.29 91.58-13.28L91.58-13.28L91.58-13.28Q91.43-13.26 91.05-13.18L91.05-13.18L91.05-13.18Q90.68-13.09 90.37-12.92L90.37-12.92L90.37-12.92Q89.59-12.48 89.59-11.63L89.59-11.63L89.59-11.63Q89.59-11.08 89.83-10.83L89.83-10.83L89.83-10.83Q90.07-10.57 90.20-10.44L90.20-10.44L90.20-10.44Q90.34-10.30 90.68-10.12L90.68-10.12L90.68-10.12Q91.02-9.93 91.15-9.86L91.15-9.86L91.15-9.86Q91.29-9.79 91.77-9.57L91.77-9.57L91.77-9.57Q92.24-9.35 92.38-9.28L92.38-9.28L92.38-9.28Q95.98-7.58 95.98-4.66ZM102.95-13.26L102.95-13.26L103.05-14.62L103.05-14.62Q103.09-14.93 103.53-14.93L103.53-14.93L104.72-14.93L104.58-17.65L104.58-17.78L104.58-17.78Q104.58-18.56 105.77-19.28L105.77-19.28L105.77-19.28Q106.96-19.99 107.95-19.99L107.95-19.99L107.95-19.99Q108.26-19.99 108.26-19.72L108.26-19.72L108.26-19.69L108.26-19.69Q108.12-18.77 107.98-14.96L107.98-14.96L107.98-14.96Q109.48-14.96 109.89-15.03L109.89-15.03L109.89-15.03Q110.30-15.10 110.33-15.10L110.33-15.10L110.33-15.10Q110.57-15.10 110.57-14.69L110.57-14.69L110.57-14.69Q110.57-14.28 110.19-13.65L110.19-13.65L110.19-13.65Q109.82-13.02 109.38-12.99L109.38-12.99L107.95-12.99L107.95-12.99Q107.92-11.83 107.92-9.10L107.92-9.10L107.92-9.10Q107.92-6.36 107.97-4.59L107.97-4.59L107.97-4.59Q108.02-2.82 108.09-1.92L108.09-1.92L108.09-1.92Q108.15-1.02 108.24-0.48L108.24-0.48L108.24-0.48Q108.32 0.07 108.38 0.31L108.38 0.31L108.38 0.31Q108.43 0.54 108.43 0.61L108.43 0.61L108.43 0.61Q108.43 0.95 107.98 0.99L107.98 0.99L107.98 0.99Q106.66 0.99 105.35 0.61L105.35 0.61L105.35 0.61Q104.04 0.24 104.04-0.68L104.04-0.68L104.04-0.68Q104.75-6.39 104.75-12.95L104.75-12.95L104.75-12.95Q103.84-12.95 103.36-12.89L103.36-12.89L103.33-12.89L103.33-12.89Q103.02-12.89 102.95-13.26ZM115.46-18.26L115.46-18.26L115.43-14.96L115.43-14.96Q115.43-14.76 115.57-14.76L115.57-14.76L115.57-14.76Q115.70-14.76 115.84-14.86L115.84-14.86L115.84-14.86Q116.69-15.44 118.52-15.44L118.52-15.44L118.52-15.44Q121.62-15.44 122.81-13.33L122.81-13.33L122.81-13.33Q123.25-12.55 123.25-11.25L123.25-11.25L123.25-11.25Q123.25-9.96 123.10-7.68L123.10-7.68L123.10-7.68Q122.94-5.41 122.94-4.45L122.94-4.45L122.94-4.45Q122.94-1.12 123.90-0.03L123.90-0.03L123.90-0.03Q124.07 0.14 124.07 0.31L124.07 0.31L124.07 0.31Q124.07 0.65 122.60 0.65L122.60 0.65L122.60 0.65Q118.66 0.65 118.66-3.03L118.66-3.03L118.66-3.03Q118.66-4.45 119.34-7.04L119.34-7.04L119.34-7.04Q120.02-9.62 120.02-10.85L120.02-10.85L120.02-10.85Q120.02-12.07 119.44-12.73L119.44-12.73L119.44-12.73Q118.86-13.40 117.84-13.40L117.84-13.40L117.84-13.40Q116.82-13.40 116.23-12.95L116.23-12.95L116.23-12.95Q115.63-12.51 115.50-12.04L115.50-12.04L115.40-11.59L115.40-11.59Q115.36-10.95 115.36-7.48L115.36-7.48L115.36-7.48Q115.36-4.01 115.53-2.98L115.53-2.98L115.53-2.98Q115.70-1.94 115.70-1.80L115.70-1.80L115.70-1.80Q115.70-0.82 114.38-0.05L114.38-0.05L114.38-0.05Q113.05 0.71 111.76 0.71L111.76 0.71L111.76 0.71Q111.28 0.71 111.28 0.17L111.28 0.17L111.35-0.48L111.35-0.48Q112.10-6.19 112.10-12.85L112.10-12.85L112.10-12.85Q112.10-15.44 111.89-18.09L111.89-18.09L111.86-18.84L111.86-18.84Q111.79-19.79 111.47-20.47L111.47-20.47L111.47-20.47Q111.15-21.15 110.87-21.35L110.87-21.35L110.57-21.52L110.57-21.52Q110.33-21.66 110.33-21.83L110.33-21.83L110.33-21.83Q110.33-22.30 111.93-23.00L111.93-23.00L111.93-23.00Q113.53-23.70 114.39-23.70L114.39-23.70L114.39-23.70Q115.26-23.70 115.33-23.32L115.33-23.32L115.33-23.32Q115.46-21.59 115.46-18.26ZM128.59-18.19L128.59-18.19L127.77-18.22L127.77-18.22Q126.85-18.22 126.58-17.78L126.58-17.78L126.58-17.78Q126.51-17.68 126.41-17.68L126.41-17.68L126.41-17.68Q125.97-17.68 125.97-19.19L125.97-19.19L125.97-19.19Q125.97-20.71 126.43-21.11L126.43-21.11L126.43-21.11Q126.89-21.52 128.03-21.52L128.03-21.52L128.03-21.52Q129.17-21.52 129.57-21.13L129.57-21.13L129.57-21.13Q129.98-20.74 129.98-19.82L129.98-19.82L129.98-19.82Q129.98-18.90 129.68-18.55L129.68-18.55L129.68-18.55Q129.37-18.19 128.59-18.19ZM125.87-1.02L125.87-1.02L126.24-8.94L126.24-8.94Q126.24-11.76 125.60-12.78L125.60-12.78L125.60-12.78Q125.39-13.12 125.12-13.29L125.12-13.29L125.12-13.29Q124.92-13.36 124.92-13.57L124.92-13.57L124.92-13.57Q124.92-14.18 126.65-14.76L126.65-14.76L126.65-14.76Q128.38-15.33 129.18-15.33L129.18-15.33L129.18-15.33Q129.98-15.33 130.02-14.93L130.02-14.93L130.02-14.93Q130.02-14.25 129.83-11.07L129.83-11.07L129.83-11.07Q129.64-7.89 129.64-4.39L129.64-4.39L129.64-4.39Q129.64-0.88 130.05-0.03L130.05-0.03L130.05-0.03Q130.15 0.14 130.15 0.31L130.15 0.31L130.15 0.31Q130.15 0.75 128.86 0.75L128.86 0.75L128.86 0.75Q127.57 0.75 126.21 0.07L126.21 0.07L126.21 0.07Q125.87-0.10 125.87-1.02ZM142.56-4.66L142.56-4.66L142.56-4.66Q142.56-3.20 142.00-2.11L142.00-2.11L142.00-2.11Q141.44-1.02 140.73-0.51L140.73-0.51L140.73-0.51Q140.01 0 139.03 0.31L139.03 0.31L139.03 0.31Q137.73 0.71 136.68 0.71L136.68 0.71L136.68 0.71Q134.47 0.71 133.01-0.15L133.01-0.15L133.01-0.15Q131.55-1.02 131.55-2.92L131.55-2.92L131.55-2.92Q131.55-4.05 132.16-4.76L132.16-4.76L132.16-4.76Q133.11-5.81 134.44-5.81L134.44-5.81L134.44-5.81Q134.84-5.81 134.84-5.44L134.84-5.44L134.84-5.44Q134.84-5.41 134.69-4.91L134.69-4.91L134.69-4.91Q134.54-4.42 134.54-3.67L134.54-3.67L134.54-3.67Q134.54-2.92 135.13-2.35L135.13-2.35L135.13-2.35Q135.73-1.77 136.58-1.77L136.58-1.77L136.58-1.77Q137.43-1.77 137.94-2.06L137.94-2.06L137.94-2.06Q138.45-2.35 138.65-2.79L138.65-2.79L138.65-2.79Q138.96-3.40 138.96-3.94L138.96-3.94L138.96-3.94Q138.96-4.93 137.97-5.64L137.97-5.64L137.97-5.64Q136.99-6.36 135.80-6.77L135.80-6.77L135.80-6.77Q134.61-7.17 133.62-8.13L133.62-8.13L133.62-8.13Q132.63-9.08 132.63-10.51L132.63-10.51L132.63-10.51Q132.63-12.95 134.18-14.18L134.18-14.18L134.18-14.18Q135.73-15.40 138.38-15.40L138.38-15.40L138.38-15.40Q139.54-15.40 140.81-15.08L140.81-15.08L140.81-15.08Q142.09-14.76 142.09-13.99L142.09-13.99L142.09-13.99Q142.09-13.23 141.83-12.58L141.83-12.58L141.83-12.58Q141.58-11.93 141.20-11.93L141.20-11.93L141.20-11.93Q141.00-11.93 140.93-12.09L140.93-12.09L140.93-12.09Q140.86-12.24 140.69-12.44L140.69-12.44L140.69-12.44Q140.52-12.65 139.88-12.97L139.88-12.97L139.88-12.97Q139.23-13.29 138.77-13.29L138.77-13.29L138.77-13.29Q138.31-13.29 138.16-13.28L138.16-13.28L138.16-13.28Q138.01-13.26 137.63-13.18L137.63-13.18L137.63-13.18Q137.26-13.09 136.95-12.92L136.95-12.92L136.95-12.92Q136.17-12.48 136.17-11.63L136.17-11.63L136.17-11.63Q136.17-11.08 136.41-10.83L136.41-10.83L136.41-10.83Q136.65-10.57 136.78-10.44L136.78-10.44L136.78-10.44Q136.92-10.30 137.26-10.12L137.26-10.12L137.26-10.12Q137.60-9.93 137.73-9.86L137.73-9.86L137.73-9.86Q137.87-9.79 138.35-9.57L138.35-9.57L138.35-9.57Q138.82-9.35 138.96-9.28L138.96-9.28L138.96-9.28Q142.56-7.58 142.56-4.66ZM153.54-18.19L153.54-18.19L152.73-18.22L152.73-18.22Q151.81-18.22 151.54-17.78L151.54-17.78L151.54-17.78Q151.47-17.68 151.37-17.68L151.37-17.68L151.37-17.68Q150.93-17.68 150.93-19.19L150.93-19.19L150.93-19.19Q150.93-20.71 151.39-21.11L151.39-21.11L151.39-21.11Q151.84-21.52 152.98-21.52L152.98-21.52L152.98-21.52Q154.12-21.52 154.53-21.13L154.53-21.13L154.53-21.13Q154.94-20.74 154.94-19.82L154.94-19.82L154.94-19.82Q154.94-18.90 154.63-18.55L154.63-18.55L154.63-18.55Q154.33-18.19 153.54-18.19ZM150.82-1.02L150.82-1.02L151.20-8.94L151.20-8.94Q151.20-11.76 150.55-12.78L150.55-12.78L150.55-12.78Q150.35-13.12 150.08-13.29L150.08-13.29L150.08-13.29Q149.87-13.36 149.87-13.57L149.87-13.57L149.87-13.57Q149.87-14.18 151.61-14.76L151.61-14.76L151.61-14.76Q153.34-15.33 154.14-15.33L154.14-15.33L154.14-15.33Q154.94-15.33 154.97-14.93L154.97-14.93L154.97-14.93Q154.97-14.25 154.79-11.07L154.79-11.07L154.79-11.07Q154.60-7.89 154.60-4.39L154.60-4.39L154.60-4.39Q154.60-0.88 155.01-0.03L155.01-0.03L155.01-0.03Q155.11 0.14 155.11 0.31L155.11 0.31L155.11 0.31Q155.11 0.75 153.82 0.75L153.82 0.75L153.82 0.75Q152.52 0.75 151.16 0.07L151.16 0.07L151.16 0.07Q150.82-0.10 150.82-1.02ZM167.52-4.66L167.52-4.66L167.52-4.66Q167.52-3.20 166.96-2.11L166.96-2.11L166.96-2.11Q166.40-1.02 165.68-0.51L165.68-0.51L165.68-0.51Q164.97 0 163.98 0.31L163.98 0.31L163.98 0.31Q162.69 0.71 161.64 0.71L161.64 0.71L161.64 0.71Q159.43 0.71 157.96-0.15L157.96-0.15L157.96-0.15Q156.50-1.02 156.50-2.92L156.50-2.92L156.50-2.92Q156.50-4.05 157.11-4.76L157.11-4.76L157.11-4.76Q158.07-5.81 159.39-5.81L159.39-5.81L159.39-5.81Q159.80-5.81 159.80-5.44L159.80-5.44L159.80-5.44Q159.80-5.41 159.65-4.91L159.65-4.91L159.65-4.91Q159.49-4.42 159.49-3.67L159.49-3.67L159.49-3.67Q159.49-2.92 160.09-2.35L160.09-2.35L160.09-2.35Q160.68-1.77 161.53-1.77L161.53-1.77L161.53-1.77Q162.38-1.77 162.89-2.06L162.89-2.06L162.89-2.06Q163.40-2.35 163.61-2.79L163.61-2.79L163.61-2.79Q163.91-3.40 163.91-3.94L163.91-3.94L163.91-3.94Q163.91-4.93 162.93-5.64L162.93-5.64L162.93-5.64Q161.94-6.36 160.75-6.77L160.75-6.77L160.75-6.77Q159.56-7.17 158.58-8.13L158.58-8.13L158.58-8.13Q157.59-9.08 157.59-10.51L157.59-10.51L157.59-10.51Q157.59-12.95 159.14-14.18L159.14-14.18L159.14-14.18Q160.68-15.40 163.34-15.40L163.34-15.40L163.34-15.40Q164.49-15.40 165.77-15.08L165.77-15.08L165.77-15.08Q167.04-14.76 167.04-13.99L167.04-13.99L167.04-13.99Q167.04-13.23 166.79-12.58L166.79-12.58L166.79-12.58Q166.53-11.93 166.16-11.93L166.16-11.93L166.16-11.93Q165.95-11.93 165.89-12.09L165.89-12.09L165.89-12.09Q165.82-12.24 165.65-12.44L165.65-12.44L165.65-12.44Q165.48-12.65 164.83-12.97L164.83-12.97L164.83-12.97Q164.19-13.29 163.73-13.29L163.73-13.29L163.73-13.29Q163.27-13.29 163.12-13.28L163.12-13.28L163.12-13.28Q162.96-13.26 162.59-13.18L162.59-13.18L162.59-13.18Q162.21-13.09 161.91-12.92L161.91-12.92L161.91-12.92Q161.13-12.48 161.13-11.63L161.13-11.63L161.13-11.63Q161.13-11.08 161.36-10.83L161.36-10.83L161.36-10.83Q161.60-10.57 161.74-10.44L161.74-10.44L161.74-10.44Q161.87-10.30 162.21-10.12L162.21-10.12L162.21-10.12Q162.55-9.93 162.69-9.86L162.69-9.86L162.69-9.86Q162.83-9.79 163.30-9.57L163.30-9.57L163.30-9.57Q163.78-9.35 163.91-9.28L163.91-9.28L163.91-9.28Q167.52-7.58 167.52-4.66ZM185.33-4.66L185.33-4.66L185.33-4.66Q185.33-3.20 184.77-2.11L184.77-2.11L184.77-2.11Q184.21-1.02 183.50-0.51L183.50-0.51L183.50-0.51Q182.78 0 181.80 0.31L181.80 0.31L181.80 0.31Q180.51 0.71 179.45 0.71L179.45 0.71L179.45 0.71Q177.24 0.71 175.78-0.15L175.78-0.15L175.78-0.15Q174.32-1.02 174.32-2.92L174.32-2.92L174.32-2.92Q174.32-4.05 174.93-4.76L174.93-4.76L174.93-4.76Q175.88-5.81 177.21-5.81L177.21-5.81L177.21-5.81Q177.62-5.81 177.62-5.44L177.62-5.44L177.62-5.44Q177.62-5.41 177.46-4.91L177.46-4.91L177.46-4.91Q177.31-4.42 177.31-3.67L177.31-3.67L177.31-3.67Q177.31-2.92 177.91-2.35L177.91-2.35L177.91-2.35Q178.50-1.77 179.35-1.77L179.35-1.77L179.35-1.77Q180.20-1.77 180.71-2.06L180.71-2.06L180.71-2.06Q181.22-2.35 181.42-2.79L181.42-2.79L181.42-2.79Q181.73-3.40 181.73-3.94L181.73-3.94L181.73-3.94Q181.73-4.93 180.74-5.64L180.74-5.64L180.74-5.64Q179.76-6.36 178.57-6.77L178.57-6.77L178.57-6.77Q177.38-7.17 176.39-8.13L176.39-8.13L176.39-8.13Q175.41-9.08 175.41-10.51L175.41-10.51L175.41-10.51Q175.41-12.95 176.95-14.18L176.95-14.18L176.95-14.18Q178.50-15.40 181.15-15.40L181.15-15.40L181.15-15.40Q182.31-15.40 183.58-15.08L183.58-15.08L183.58-15.08Q184.86-14.76 184.86-13.99L184.86-13.99L184.86-13.99Q184.86-13.23 184.60-12.58L184.60-12.58L184.60-12.58Q184.35-11.93 183.97-11.93L183.97-11.93L183.97-11.93Q183.77-11.93 183.70-12.09L183.70-12.09L183.70-12.09Q183.63-12.24 183.46-12.44L183.46-12.44L183.46-12.44Q183.29-12.65 182.65-12.97L182.65-12.97L182.65-12.97Q182.00-13.29 181.54-13.29L181.54-13.29L181.54-13.29Q181.08-13.29 180.93-13.28L180.93-13.28L180.93-13.28Q180.78-13.26 180.40-13.18L180.40-13.18L180.40-13.18Q180.03-13.09 179.72-12.92L179.72-12.92L179.72-12.92Q178.94-12.48 178.94-11.63L178.94-11.63L178.94-11.63Q178.94-11.08 179.18-10.83L179.18-10.83L179.18-10.83Q179.42-10.57 179.55-10.44L179.55-10.44L179.55-10.44Q179.69-10.30 180.03-10.12L180.03-10.12L180.03-10.12Q180.37-9.93 180.51-9.86L180.51-9.86L180.51-9.86Q180.64-9.79 181.12-9.57L181.12-9.57L181.12-9.57Q181.59-9.35 181.73-9.28L181.73-9.28L181.73-9.28Q185.33-7.58 185.33-4.66ZM198.05-10.20L198.05-10.20L197.98-5.85L197.98-5.85Q197.98-1.33 198.97-0.41L198.97-0.41L198.97-0.41Q199.10-0.27 199.10-0.10L199.10-0.10L199.10-0.10Q199.10 0.41 196.91 0.41L196.91 0.41L196.91 0.41Q194.72 0.41 194.58-0.88L194.58-0.88L194.58-0.88Q194.55-1.19 194.55-2.14L194.55-2.14L194.68-7.58L194.68-7.58Q194.68-7.82 194.41-7.82L194.41-7.82L194.41-7.82Q192.78-7.82 191.35-6.90L191.35-6.90L191.35-6.90Q189.92-5.98 189.92-4.56L189.92-4.56L189.92-4.56Q189.92-3.81 190.33-3.30L190.33-3.30L190.33-3.30Q190.74-2.79 191.34-2.79L191.34-2.79L191.34-2.79Q191.93-2.79 192.32-3.03L192.32-3.03L192.32-3.03Q192.71-3.26 192.78-3.30L192.78-3.30L192.78-3.30Q193.36-3.23 193.36-2.09L193.36-2.09L193.36-2.09Q193.36-0.95 192.30-0.26L192.30-0.26L192.30-0.26Q191.25 0.44 190.09 0.44L190.09 0.44L190.09 0.44Q188.94 0.44 188.11 0.03L188.11 0.03L188.11 0.03Q187.27-0.37 186.90-0.88L186.90-0.88L186.90-0.88Q186.52-1.39 186.29-2.04L186.29-2.04L186.29-2.04Q186.05-2.82 186.05-3.40L186.05-3.40L186.05-3.40Q186.05-5.78 187.54-7.21L187.54-7.21L187.54-7.21Q189.04-8.64 191.39-9.25L191.39-9.25L191.39-9.25Q194.48-9.86 194.62-10.37L194.62-10.37L194.62-10.37Q194.72-10.74 194.72-11.63L194.72-11.63L194.72-11.63Q194.72-13.43 192.88-13.43L192.88-13.43L192.88-13.43Q192.10-13.43 191.49-12.94L191.49-12.94L191.49-12.94Q190.88-12.44 190.88-11.70L190.88-11.70L191.08-10.88L191.08-10.88Q191.01-10.30 189.86-10.20L189.86-10.20L189.48-10.17L189.48-10.17Q188.46-10.17 187.87-10.68L187.87-10.68L187.87-10.68Q187.27-11.19 187.27-12.04L187.27-12.04L187.27-12.04Q187.27-12.58 187.63-13.24L187.63-13.24L187.63-13.24Q187.99-13.91 188.53-14.31L188.53-14.31L188.53-14.31Q189.07-14.72 190.21-15.05L190.21-15.05L190.21-15.05Q191.35-15.37 192.41-15.37L192.41-15.37L192.41-15.37Q193.46-15.37 194.04-15.30L194.04-15.30L194.04-15.30Q194.62-15.23 195.62-14.98L195.62-14.98L195.62-14.98Q196.62-14.72 197.29-14.01L197.29-14.01L197.29-14.01Q197.95-13.29 198.00-12.50L198.00-12.50L198.00-12.50Q198.05-11.70 198.05-10.20ZM210.66-11.70L210.49-9.11L210.63-7.92L210.63-7.92Q210.63-7.28 209.41-7.28L209.41-7.28L209.41-7.28Q206.92-7.28 206.92-9.15L206.92-9.15L206.92-9.15Q206.92-9.59 207.16-10.37L207.16-10.37L207.16-10.37Q207.40-11.15 207.40-11.73L207.40-11.73L207.40-11.73Q207.40-12.31 207.06-12.73L207.06-12.73L207.06-12.73Q206.72-13.16 206.07-13.16L206.07-13.16L206.07-13.16Q205.43-13.16 204.97-12.70L204.97-12.70L204.97-12.70Q204.51-12.24 204.41-11.76L204.41-11.76L204.27-11.29L204.27-11.29Q204.07-10.23 204.07-7.77L204.07-7.77L204.07-7.77Q204.07-5.30 204.14-3.89L204.14-3.89L204.14-3.89Q204.20-2.48 204.27-1.96L204.27-1.96L204.27-1.96Q204.34-1.43 204.34-1.33L204.34-1.33L204.34-1.33Q204.34-0.48 203.29 0.05L203.29 0.05L203.29 0.05Q202.23 0.58 201.18 0.58L201.18 0.58L201.18 0.58Q200.12 0.58 200.12 0.14L200.12 0.14L200.29-0.92L200.29-0.92Q200.77-3.88 200.77-8.64L200.77-8.64L200.77-8.64Q200.77-13.40 200.43-15.10L200.43-15.10L200.43-15.10Q200.43-15.50 201.14-15.50L201.14-15.50L201.14-15.50Q202.98-15.50 203.59-14.25L203.59-14.25L203.59-14.25Q203.63-14.11 203.71-14.11L203.71-14.11L203.71-14.11Q203.80-14.11 204.17-14.42L204.17-14.42L204.17-14.42Q205.29-15.33 206.82-15.33L206.82-15.33L206.82-15.33Q207.77-15.33 208.73-14.96L208.73-14.96L208.73-14.96Q210.66-14.18 210.66-11.70L210.66-11.70ZM223.31-3.91L223.31-3.91L223.31-3.91Q223.31-1.97 221.77-0.70L221.77-0.70L221.77-0.70Q220.22 0.58 218.08 0.58L218.08 0.58L218.08 0.58Q214.95 0.58 213.49-1.31L213.49-1.31L213.49-1.31Q212.02-3.20 212.02-6.43L212.02-6.43L212.02-6.43Q212.02-9.86 213.55-12.51L213.55-12.51L213.55-12.51Q214.30-13.87 215.70-14.65L215.70-14.65L215.70-14.65Q217.09-15.44 218.96-15.44L218.96-15.44L218.96-15.44Q221.78-15.44 222.94-13.53L222.94-13.53L222.94-13.53Q223.41-12.75 223.41-11.70L223.41-11.70L223.41-11.70Q223.41-10.06 222.05-9.25L222.05-9.25L222.05-9.25Q221.51-8.94 221.05-8.94L221.05-8.94L221.05-8.94Q220.59-8.94 220.30-8.99L220.30-8.99L220.30-8.99Q220.01-9.04 219.54-9.45L219.54-9.45L219.54-9.45Q219.06-9.86 219.06-10.57L219.06-10.57L219.06-10.57Q219.10-10.95 219.64-11.19L219.64-11.19L219.64-11.19Q220.15-11.49 220.15-12.27L220.15-12.27L220.15-12.27Q220.15-13.60 218.52-13.60L218.52-13.60L218.52-13.60Q218.11-13.60 217.55-13.24L217.55-13.24L217.55-13.24Q216.99-12.89 216.61-12.33L216.61-12.33L216.61-12.33Q216.24-11.76 215.92-10.56L215.92-10.56L215.92-10.56Q215.59-9.35 215.59-8.25L215.59-8.25L215.59-8.25Q215.59-7.14 215.68-6.58L215.68-6.58L215.68-6.58Q215.76-6.02 216.05-5.05L216.05-5.05L216.05-5.05Q216.34-4.08 217.14-3.47L217.14-3.47L217.14-3.47Q217.94-2.86 219.13-2.86L219.13-2.86L219.13-2.86Q220.56-2.86 221.65-4.05L221.65-4.05L221.65-4.05Q222.09-4.52 222.36-5.20L222.36-5.20L222.36-5.20Q222.50-5.47 222.70-5.47L222.70-5.47L222.70-5.47Q223.01-5.47 223.16-4.91L223.16-4.91L223.16-4.91Q223.31-4.35 223.31-3.91ZM236.47-10.20L236.47-10.20L236.40-5.85L236.40-5.85Q236.40-1.33 237.39-0.41L237.39-0.41L237.39-0.41Q237.52-0.27 237.52-0.10L237.52-0.10L237.52-0.10Q237.52 0.41 235.33 0.41L235.33 0.41L235.33 0.41Q233.14 0.41 233.00-0.88L233.00-0.88L233.00-0.88Q232.97-1.19 232.97-2.14L232.97-2.14L233.10-7.58L233.10-7.58Q233.10-7.82 232.83-7.82L232.83-7.82L232.83-7.82Q231.20-7.82 229.77-6.90L229.77-6.90L229.77-6.90Q228.34-5.98 228.34-4.56L228.34-4.56L228.34-4.56Q228.34-3.81 228.75-3.30L228.75-3.30L228.75-3.30Q229.16-2.79 229.76-2.79L229.76-2.79L229.76-2.79Q230.35-2.79 230.74-3.03L230.74-3.03L230.74-3.03Q231.13-3.26 231.20-3.30L231.20-3.30L231.20-3.30Q231.78-3.23 231.78-2.09L231.78-2.09L231.78-2.09Q231.78-0.95 230.72-0.26L230.72-0.26L230.72-0.26Q229.67 0.44 228.51 0.44L228.51 0.44L228.51 0.44Q227.36 0.44 226.53 0.03L226.53 0.03L226.53 0.03Q225.69-0.37 225.32-0.88L225.32-0.88L225.32-0.88Q224.94-1.39 224.71-2.04L224.71-2.04L224.71-2.04Q224.47-2.82 224.47-3.40L224.47-3.40L224.47-3.40Q224.47-5.78 225.96-7.21L225.96-7.21L225.96-7.21Q227.46-8.64 229.81-9.25L229.81-9.25L229.81-9.25Q232.90-9.86 233.04-10.37L233.04-10.37L233.04-10.37Q233.14-10.74 233.14-11.63L233.14-11.63L233.14-11.63Q233.14-13.43 231.30-13.43L231.30-13.43L231.30-13.43Q230.52-13.43 229.91-12.94L229.91-12.94L229.91-12.94Q229.30-12.44 229.30-11.70L229.30-11.70L229.50-10.88L229.50-10.88Q229.43-10.30 228.28-10.20L228.28-10.20L227.90-10.17L227.90-10.17Q226.88-10.17 226.29-10.68L226.29-10.68L226.29-10.68Q225.69-11.19 225.69-12.04L225.69-12.04L225.69-12.04Q225.69-12.58 226.05-13.24L226.05-13.24L226.05-13.24Q226.41-13.91 226.95-14.31L226.95-14.31L226.95-14.31Q227.49-14.72 228.63-15.05L228.63-15.05L228.63-15.05Q229.77-15.37 230.83-15.37L230.83-15.37L230.83-15.37Q231.88-15.37 232.46-15.30L232.46-15.30L232.46-15.30Q233.04-15.23 234.04-14.98L234.04-14.98L234.04-14.98Q235.04-14.72 235.71-14.01L235.71-14.01L235.71-14.01Q236.37-13.29 236.42-12.50L236.42-12.50L236.42-12.50Q236.47-11.70 236.47-10.20ZM248.88-4.66L248.88-4.66L248.88-4.66Q248.88-3.20 248.32-2.11L248.32-2.11L248.32-2.11Q247.76-1.02 247.04-0.51L247.04-0.51L247.04-0.51Q246.33 0 245.34 0.31L245.34 0.31L245.34 0.31Q244.05 0.71 243.00 0.71L243.00 0.71L243.00 0.71Q240.79 0.71 239.33-0.15L239.33-0.15L239.33-0.15Q237.86-1.02 237.86-2.92L237.86-2.92L237.86-2.92Q237.86-4.05 238.48-4.76L238.48-4.76L238.48-4.76Q239.43-5.81 240.75-5.81L240.75-5.81L240.75-5.81Q241.16-5.81 241.16-5.44L241.16-5.44L241.16-5.44Q241.16-5.41 241.01-4.91L241.01-4.91L241.01-4.91Q240.86-4.42 240.86-3.67L240.86-3.67L240.86-3.67Q240.86-2.92 241.45-2.35L241.45-2.35L241.45-2.35Q242.05-1.77 242.90-1.77L242.90-1.77L242.90-1.77Q243.75-1.77 244.26-2.06L244.26-2.06L244.26-2.06Q244.77-2.35 244.97-2.79L244.97-2.79L244.97-2.79Q245.28-3.40 245.28-3.94L245.28-3.94L245.28-3.94Q245.28-4.93 244.29-5.64L244.29-5.64L244.29-5.64Q243.30-6.36 242.11-6.77L242.11-6.77L242.11-6.77Q240.92-7.17 239.94-8.13L239.94-8.13L239.94-8.13Q238.95-9.08 238.95-10.51L238.95-10.51L238.95-10.51Q238.95-12.95 240.50-14.18L240.50-14.18L240.50-14.18Q242.05-15.40 244.70-15.40L244.70-15.40L244.70-15.40Q245.85-15.40 247.13-15.08L247.13-15.08L247.13-15.08Q248.40-14.76 248.40-13.99L248.40-13.99L248.40-13.99Q248.40-13.23 248.15-12.58L248.15-12.58L248.15-12.58Q247.89-11.93 247.52-11.93L247.52-11.93L247.52-11.93Q247.32-11.93 247.25-12.09L247.25-12.09L247.25-12.09Q247.18-12.24 247.01-12.44L247.01-12.44L247.01-12.44Q246.84-12.65 246.19-12.97L246.19-12.97L246.19-12.97Q245.55-13.29 245.09-13.29L245.09-13.29L245.09-13.29Q244.63-13.29 244.48-13.28L244.48-13.28L244.48-13.28Q244.32-13.26 243.95-13.18L243.95-13.18L243.95-13.18Q243.58-13.09 243.27-12.92L243.27-12.92L243.27-12.92Q242.49-12.48 242.49-11.63L242.49-11.63L242.49-11.63Q242.49-11.08 242.73-10.83L242.73-10.83L242.73-10.83Q242.96-10.57 243.10-10.44L243.10-10.44L243.10-10.44Q243.24-10.30 243.58-10.12L243.58-10.12L243.58-10.12Q243.92-9.93 244.05-9.86L244.05-9.86L244.05-9.86Q244.19-9.79 244.66-9.57L244.66-9.57L244.66-9.57Q245.14-9.35 245.28-9.28L245.28-9.28L245.28-9.28Q248.88-7.58 248.88-4.66ZM257.92 0.20L257.92 0.20L257.92 0.20Q258.40-2.18 258.40-6.48L258.40-6.48L258.40-6.48Q258.40-10.78 258.37-11.56L258.37-11.56L258.37-11.56Q258.33-12.34 257.89-12.82L257.89-12.82L257.89-12.82Q257.45-13.29 257.13-13.36L257.13-13.36L257.13-13.36Q256.80-13.43 256.22-13.43L256.22-13.43L256.22-13.43Q255.65-13.43 255.10-12.90L255.10-12.90L255.10-12.90Q254.56-12.38 254.46-11.83L254.46-11.83L254.32-11.29L254.32-11.29Q254.22-10.27 254.22-6.77L254.22-6.77L254.22-6.77Q254.22-3.26 254.37-2.36L254.37-2.36L254.37-2.36Q254.52-1.46 254.52-1.16L254.52-1.16L254.52-1.16Q254.52-0.85 254.25-0.54L254.25-0.54L254.25-0.54Q253.10 0.68 250.99 0.68L250.99 0.68L250.99 0.68Q250.24 0.68 250.24 0.24L250.24 0.24L250.24 0.24Q250.92-3.84 250.92-10.17L250.92-10.17L250.92-10.17Q250.92-12.51 250.82-13.33L250.82-13.33L250.68-14.42L250.68-14.42Q250.65-14.79 250.55-15.23L250.55-15.23L250.55-15.23Q250.55-15.64 251.60-15.64L251.60-15.64L251.60-15.64Q253.16-15.64 253.67-14.48L253.67-14.48L253.67-14.48Q253.71-14.35 253.81-14.35L253.81-14.35L253.81-14.35Q253.91-14.35 254.29-14.62L254.29-14.62L254.29-14.62Q255.41-15.50 257.31-15.50L257.31-15.50L257.31-15.50Q258.40-15.50 259.45-15.10L259.45-15.10L259.45-15.10Q260.51-14.69 260.92-14.01L260.92-14.01L260.92-14.01Q260.95-13.94 261.02-13.94L261.02-13.94L261.02-13.94Q261.09-13.94 261.22-14.08L261.22-14.08L261.22-14.08Q262.65-15.50 264.93-15.50L264.93-15.50L264.93-15.50Q267.95-15.50 269.08-13.33L269.08-13.33L269.08-13.33Q269.48-12.48 269.48-11.19L269.48-11.19L269.48-11.19Q269.48-9.89 269.28-7.51L269.28-7.51L269.28-7.51Q269.08-5.13 269.08-3.88L269.08-3.88L269.08-3.88Q269.08-2.62 269.33-1.60L269.33-1.60L269.33-1.60Q269.59-0.58 269.84-0.14L269.84-0.14L269.84-0.14Q270.10 0.31 270.10 0.37L270.10 0.37L270.10 0.37Q270.10 0.82 269.14 0.82L269.14 0.82L269.14 0.82Q266.80 0.82 265.88-0.14L265.88-0.14L265.88-0.14Q264.96-1.09 264.96-2.64L264.96-2.64L264.96-2.64Q264.96-4.18 265.59-6.82L265.59-6.82L265.59-6.82Q266.22-9.45 266.22-10.78L266.22-10.78L266.22-10.78Q266.22-13.46 264.04-13.46L264.04-13.46L264.04-13.46Q263.13-13.46 262.58-12.92L262.58-12.92L262.58-12.92Q262.04-12.38 261.94-11.83L261.94-11.83L261.87-11.29L261.87-11.29Q261.73-9.72 261.73-7.51L261.73-7.51L261.73-7.51Q261.73-5.30 261.80-4.06L261.80-4.06L261.80-4.06Q261.87-2.82 261.94-2.13L261.94-2.13L261.94-2.13Q262.00-1.43 262.00-1.29L262.00-1.29L262.00-1.29Q262.00-0.34 260.81 0.17L260.81 0.17L260.81 0.17Q259.62 0.68 258.50 0.68L258.50 0.68L258.50 0.68Q257.92 0.68 257.92 0.20ZM283.36 9.42L283.36 9.42L283.36 9.42Q283.36 9.83 282.95 9.83L282.95 9.83L282.91 9.83L282.91 9.83Q281.79 9.83 280.38 9.04L280.38 9.04L280.38 9.04Q278.97 8.26 278.97 7.24L278.97 7.24L278.97 7.24Q278.97 6.22 280.26 3.69L280.26 3.69L280.26 3.69Q281.55 1.16 281.55 0.31L281.55 0.31L281.55 0.31Q281.55-0.61 280.67-2.99L280.67-2.99L280.67-2.99Q279.55-6.09 278.89-8.02L278.89-8.02L278.89-8.02Q278.22-9.96 277.46-11.44L277.46-11.44L277.46-11.44Q276.69-12.92 276.35-13.19L276.35-13.19L276.01-13.43L276.01-13.43Q275.64-13.63 275.64-13.87L275.64-13.87L275.64-13.87Q275.64-14.35 277.12-14.84L277.12-14.84L277.12-14.84Q278.60-15.33 279.72-15.33L279.72-15.33L279.72-15.33Q280.23-15.33 280.57-14.52L280.57-14.52L280.57-14.52Q281.18-12.92 281.89-10.10L281.89-10.10L281.89-10.10Q283.63-4.32 284.07-4.32L284.07-4.32L284.07-4.32Q284.38-4.32 285.31-6.70L285.31-6.70L285.31-6.70Q286.25-9.08 286.25-10.54L286.25-10.54L286.25-10.54Q286.25-13.09 284.75-13.53L284.75-13.53L284.75-13.53Q284.41-13.60 284.41-13.87L284.41-13.87L284.41-13.87Q284.41-14.48 286.01-15.05L286.01-15.05L286.01-15.05Q287.61-15.61 288.90-15.61L288.90-15.61L288.90-15.61Q290.02-15.61 290.02-14.14L290.02-14.14L290.02-14.14Q290.02-13.02 289.54-11.53L289.54-11.53L289.54-11.53Q289.07-10.03 288.66-9.16L288.66-9.16L288.66-9.16Q288.25-8.30 286.64-5.15L286.64-5.15L286.64-5.15Q285.02-2.01 283.97 0.37L283.97 0.37L283.97 0.37Q282.81 3.23 282.81 6.19L282.81 6.19L282.81 6.19Q282.81 7.75 283.08 8.53L283.08 8.53L283.08 8.53Q283.36 9.32 283.36 9.42ZM293.22-12.82L293.22-12.82L293.22-12.82Q292.33-12.78 291.94-12.77L291.94-12.77L291.94-12.77Q291.55-12.75 291.55-12.95L291.55-12.95L291.55-12.95Q291.55-13.16 291.75-13.36L291.75-13.36L291.75-13.36Q293.93-15.37 299.10-15.37L299.10-15.37L299.10-15.37Q300.87-15.37 301.89-15.06L301.89-15.06L302.23-14.96L302.23-14.96Q302.63-14.79 302.63-14.59L302.63-14.59L302.63-14.59Q302.63-14.42 302.40-14.31L302.40-14.31L302.40-14.31Q301.48-14.04 300.63-13.45L300.63-13.45L300.63-13.45Q299.78-12.85 299.78-12.61L299.78-12.61L299.98-12.38L299.98-12.38Q301.07-11.76 301.67-10.44L301.67-10.44L301.67-10.44Q302.26-9.11 302.33-8.09L302.33-8.09L302.40-7.04L302.40-7.04Q302.40-3.67 300.53-1.50L300.53-1.50L300.53-1.50Q298.66 0.68 295.43 0.68L295.43 0.68L295.43 0.68Q293.79 0.68 292.60 0.10L292.60 0.10L292.60 0.10Q291.41-0.48 290.85-1.21L290.85-1.21L290.85-1.21Q290.29-1.94 289.95-2.86L289.95-2.86L289.95-2.86Q289.54-4.11 289.54-5.46L289.54-5.46L289.54-5.46Q289.54-6.80 290.00-8.16L290.00-8.16L290.00-8.16Q290.46-9.52 291.06-10.17L291.06-10.17L291.06-10.17Q291.65-10.81 292.40-11.22L292.40-11.22L292.40-11.22Q293.35-11.73 293.93-11.73L293.93-11.73L293.93-11.73Q294.51-11.73 294.51-11.49L294.51-11.49L294.30-11.15L294.30-11.15Q293.56-10.27 293.23-8.84L293.23-8.84L293.23-8.84Q292.91-7.41 292.91-6.31L292.91-6.31L292.91-6.31Q292.91-5.20 293.18-4.11L293.18-4.11L293.18-4.11Q293.45-3.03 293.79-2.50L293.79-2.50L293.79-2.50Q294.13-1.97 294.58-1.70L294.58-1.70L294.58-1.70Q295.22-1.29 295.94-1.29L295.94-1.29L295.94-1.29Q296.65-1.29 297.33-1.85L297.33-1.85L297.33-1.85Q298.01-2.41 298.32-3.33L298.32-3.33L298.32-3.33Q298.93-5.03 298.93-6.83L298.93-6.83L298.93-6.83Q298.93-9.69 297.48-11.25L297.48-11.25L297.48-11.25Q296.04-12.82 293.22-12.82ZM316.20-15.13L316.20-15.13L316.20-15.13Q315.59-11.46 315.59-5.78L315.59-5.78L315.59-5.78Q315.59-1.60 315.93-0.27L315.93-0.27L316.06 0.17L316.06 0.17Q316.06 0.61 315.32 0.61L315.32 0.61L315.32 0.61Q312.70 0.61 312.32-0.85L312.32-0.85L312.32-0.85Q312.29-1.02 312.17-1.02L312.17-1.02L312.17-1.02Q312.05-1.02 311.95-0.88L311.95-0.88L311.95-0.88Q310.90 0.51 308.69 0.51L308.69 0.51L308.69 0.51Q307.46 0.51 306.14-0.10L306.14-0.10L306.14-0.10Q305.32-0.48 304.81-1.41L304.81-1.41L304.81-1.41Q304.30-2.35 304.30-3.71L304.30-3.71L304.81-11.15L304.81-11.15Q304.81-13.50 304.33-14.48L304.33-14.48L304.33-14.48Q304.16-14.86 304.16-14.96L304.16-14.96L304.16-14.96Q304.16-15.16 304.33-15.23L304.33-15.23L304.33-15.23Q304.88-15.40 305.73-15.40L305.73-15.40L305.73-15.40Q309.03-15.40 309.03-12.68L309.03-12.68L309.03-12.68Q309.03-11.83 308.33-8.81L308.33-8.81L308.33-8.81Q307.63-5.78 307.63-4.50L307.63-4.50L307.63-4.50Q307.63-3.23 308.19-2.55L308.19-2.55L308.19-2.55Q308.75-1.87 309.76-1.87L309.76-1.87L309.76-1.87Q310.76-1.87 311.34-2.58L311.34-2.58L311.34-2.58Q311.92-3.30 312.02-4.01L312.02-4.01L312.12-4.73L312.12-4.73Q312.26-5.92 312.26-8.91L312.26-8.91L312.26-8.91Q312.26-11.90 312.07-12.70L312.07-12.70L312.07-12.70Q311.88-13.50 311.88-13.70L311.88-13.70L311.88-13.70Q311.88-14.55 313.24-15.05L313.24-15.05L313.24-15.05Q314.60-15.54 315.69-15.54L315.69-15.54L315.69-15.54Q316.20-15.54 316.20-15.13ZM328.37-8.50L328.37-8.50L328.54-1.70L328.54-1.70Q328.54 0.44 327.98 2.09L327.98 2.09L327.98 2.09Q327.42 3.74 326.60 4.56L326.60 4.56L326.60 4.56Q324.94 6.29 323.68 6.53L323.68 6.53L323.10 6.66L323.10 6.66Q322.59 6.66 322.59 6.36L322.59 6.36L322.76 5.85L322.76 5.85Q325.24 2.41 325.24-11.02L325.24-11.02L325.24-11.02Q325.24-12.24 325.21-12.85L325.21-12.85L325.21-12.85Q324.50-12.85 323.78-12.75L323.78-12.75L323.75-12.75L323.75-12.75Q323.37-12.75 323.37-13.12L323.37-13.12L323.48-14.42L323.48-14.42Q323.51-14.72 323.95-14.72L323.95-14.72L325.18-14.72L325.18-17L325.24-20.23L325.24-20.23Q325.24-20.47 325.33-20.76L325.33-20.76L325.33-20.76Q325.41-21.05 326.06-21.64L326.06-21.64L326.06-21.64Q326.71-22.24 327.96-22.73L327.96-22.73L327.96-22.73Q329.22-23.22 330.12-23.22L330.12-23.22L330.12-23.22Q331.02-23.22 331.02-22.68L331.02-22.68L331.02-22.68Q331.02-22.47 330.72-22.34L330.72-22.34L330.72-22.34Q329.73-22.03 329.10-20.59L329.10-20.59L329.10-20.59Q328.47-19.14 328.47-15.67L328.47-15.67L328.47-14.72L328.47-14.72Q330.21-14.79 330.75-14.89L330.75-14.89L330.75-14.89Q330.99-14.89 330.99-14.48L330.99-14.48L330.99-14.48Q330.99-14.08 330.63-13.48L330.63-13.48L330.63-13.48Q330.28-12.89 329.75-12.87L329.75-12.87L329.75-12.87Q329.22-12.85 328.44-12.89L328.44-12.89L328.44-12.89Q328.37-10.30 328.37-8.50ZM343.54-15.13L343.54-15.13L343.54-15.13Q342.92-11.46 342.92-5.78L342.92-5.78L342.92-5.78Q342.92-1.60 343.26-0.27L343.26-0.27L343.40 0.17L343.40 0.17Q343.40 0.61 342.65 0.61L342.65 0.61L342.65 0.61Q340.03 0.61 339.66-0.85L339.66-0.85L339.66-0.85Q339.63-1.02 339.51-1.02L339.51-1.02L339.51-1.02Q339.39-1.02 339.29-0.88L339.29-0.88L339.29-0.88Q338.23 0.51 336.02 0.51L336.02 0.51L336.02 0.51Q334.80 0.51 333.47-0.10L333.47-0.10L333.47-0.10Q332.66-0.48 332.15-1.41L332.15-1.41L332.15-1.41Q331.64-2.35 331.64-3.71L331.64-3.71L332.15-11.15L332.15-11.15Q332.15-13.50 331.67-14.48L331.67-14.48L331.67-14.48Q331.50-14.86 331.50-14.96L331.50-14.96L331.50-14.96Q331.50-15.16 331.67-15.23L331.67-15.23L331.67-15.23Q332.21-15.40 333.06-15.40L333.06-15.40L333.06-15.40Q336.36-15.40 336.36-12.68L336.36-12.68L336.36-12.68Q336.36-11.83 335.67-8.81L335.67-8.81L335.67-8.81Q334.97-5.78 334.97-4.50L334.97-4.50L334.97-4.50Q334.97-3.23 335.53-2.55L335.53-2.55L335.53-2.55Q336.09-1.87 337.09-1.87L337.09-1.87L337.09-1.87Q338.10-1.87 338.67-2.58L338.67-2.58L338.67-2.58Q339.25-3.30 339.35-4.01L339.35-4.01L339.46-4.73L339.46-4.73Q339.59-5.92 339.59-8.91L339.59-8.91L339.59-8.91Q339.59-11.90 339.41-12.70L339.41-12.70L339.41-12.70Q339.22-13.50 339.22-13.70L339.22-13.70L339.22-13.70Q339.22-14.55 340.58-15.05L340.58-15.05L340.58-15.05Q341.94-15.54 343.03-15.54L343.03-15.54L343.03-15.54Q343.54-15.54 343.54-15.13ZM355.95-3.91L355.95-3.91L355.95-3.91Q355.95-1.97 354.40-0.70L354.40-0.70L354.40-0.70Q352.85 0.58 350.71 0.58L350.71 0.58L350.71 0.58Q347.58 0.58 346.12-1.31L346.12-1.31L346.12-1.31Q344.66-3.20 344.66-6.43L344.66-6.43L344.66-6.43Q344.66-9.86 346.19-12.51L346.19-12.51L346.19-12.51Q346.94-13.87 348.33-14.65L348.33-14.65L348.33-14.65Q349.72-15.44 351.59-15.44L351.59-15.44L351.59-15.44Q354.42-15.44 355.57-13.53L355.57-13.53L355.57-13.53Q356.05-12.75 356.05-11.70L356.05-11.70L356.05-11.70Q356.05-10.06 354.69-9.25L354.69-9.25L354.69-9.25Q354.14-8.94 353.69-8.94L353.69-8.94L353.69-8.94Q353.23-8.94 352.94-8.99L352.94-8.99L352.94-8.99Q352.65-9.04 352.17-9.45L352.17-9.45L352.17-9.45Q351.70-9.86 351.70-10.57L351.70-10.57L351.70-10.57Q351.73-10.95 352.27-11.19L352.27-11.19L352.27-11.19Q352.78-11.49 352.78-12.27L352.78-12.27L352.78-12.27Q352.78-13.60 351.15-13.60L351.15-13.60L351.15-13.60Q350.74-13.60 350.18-13.24L350.18-13.24L350.18-13.24Q349.62-12.89 349.25-12.33L349.25-12.33L349.25-12.33Q348.87-11.76 348.55-10.56L348.55-10.56L348.55-10.56Q348.23-9.35 348.23-8.25L348.23-8.25L348.23-8.25Q348.23-7.14 348.31-6.58L348.31-6.58L348.31-6.58Q348.40-6.02 348.69-5.05L348.69-5.05L348.69-5.05Q348.98-4.08 349.78-3.47L349.78-3.47L349.78-3.47Q350.57-2.86 351.76-2.86L351.76-2.86L351.76-2.86Q353.19-2.86 354.28-4.05L354.28-4.05L354.28-4.05Q354.72-4.52 354.99-5.20L354.99-5.20L354.99-5.20Q355.13-5.47 355.33-5.47L355.33-5.47L355.33-5.47Q355.64-5.47 355.79-4.91L355.79-4.91L355.79-4.91Q355.95-4.35 355.95-3.91ZM364.48-11.02L364.48-11.02L364.48-11.02Q364.34-10.88 364.34-10.73L364.34-10.73L364.34-10.73Q364.34-10.57 364.97-10.44L364.97-10.44L364.97-10.44Q365.60-10.30 366.35-9.69L366.35-9.69L366.35-9.69Q367.10-9.08 367.47-8.36L367.47-8.36L367.47-8.36Q368.19-6.97 368.25-5.92L368.25-5.92L368.29-5.47L368.29-5.47Q368.46-1.50 369.75-0.03L369.75-0.03L369.75-0.03Q369.92 0.20 369.92 0.31L369.92 0.31L369.92 0.31Q369.92 0.68 368.97 0.68L368.97 0.68L368.97 0.68Q366.11 0.68 365.33-0.51L365.33-0.51L365.33-0.51Q364.92-0.99 364.92-3.47L364.92-3.47L364.92-4.32L364.92-4.32Q364.92-7.48 364.14-8.70L364.14-8.70L364.14-8.70Q363.73-9.28 363.14-9.28L363.14-9.28L363.14-9.28Q362.54-9.28 361.90-8.25L361.90-8.25L361.90-8.25Q361.25-7.21 361.25-6.49L361.25-6.49L361.25-6.49Q361.25-3.64 361.39-2.52L361.39-2.52L361.39-2.52Q361.52-1.39 361.52-1.36L361.52-1.36L361.52-1.36Q361.52-0.37 360.18 0.17L360.18 0.17L360.18 0.17Q358.84 0.71 357.65 0.71L357.65 0.71L357.65 0.71Q357.20 0.71 357.20 0.17L357.20 0.17L357.20 0.03L357.20 0.03Q358.02-4.15 358.02-13.16L358.02-13.16L358.02-13.16Q358.02-16.12 357.88-18.16L357.88-18.16L357.82-18.84L357.82-18.84Q357.75-19.79 357.43-20.47L357.43-20.47L357.43-20.47Q357.10-21.15 356.80-21.35L356.80-21.35L356.52-21.52L356.52-21.52Q356.29-21.66 356.29-21.83L356.29-21.83L356.29-21.83Q356.29-22.37 357.92-23.05L357.92-23.05L357.92-23.05Q359.55-23.73 360.74-23.73L360.74-23.73L360.74-23.73Q361.28-23.70 361.32-23.32L361.32-23.32L361.32-23.32Q361.49-21.96 361.49-17.73L361.49-17.73L361.49-17.73Q361.49-13.50 361.28-10.98L361.28-10.98L361.28-10.98Q361.28-10.57 361.42-10.57L361.42-10.57L361.42-10.57Q361.56-10.57 361.85-10.97L361.85-10.97L361.85-10.97Q362.13-11.36 362.87-12.21L362.87-12.21L362.87-12.21Q363.60-13.06 364.84-14.18L364.84-14.18L364.84-14.18Q366.08-15.30 366.84-15.30L366.84-15.30L366.84-15.30Q367.61-15.30 368.36-14.93L368.36-14.93L368.36-14.93Q369.10-14.55 369.10-14.21L369.10-14.21L368.73-13.97L368.73-13.97Q366.79-13.26 364.48-11.02Z" fill="url(#editing-shiny-gradient2)"></path></g></g><style>text {
  font-size: 64px;
  font-family: Arial Black;
  dominant-baseline: central;
  text-anchor: middle;
}</style></svg>